<?xml version="1.0" standalone="no"?>
<!DOCTYPE svg PUBLIC "-//W3C//DTD SVG 20010904//EN"
 "http://www.w3.org/TR/2001/REC-SVG-20010904/DTD/svg10.dtd">
<svg version="1.0" xmlns="http://www.w3.org/2000/svg"
 width="260.000000pt" height="260.000000pt" viewBox="0 0 260.000000 260.000000"
 preserveAspectRatio="xMidYMid meet">
<metadata>
Created by potrace 1.11, written by Peter Selinger 2001-2013
</metadata>
<g transform="translate(0.000000,260.000000) scale(0.100000,-0.100000)"
fill="#000000" stroke="none">
<path d="M456 2033 c8 -21 94 -234 190 -473 96 -239 179 -444 184 -455 19 -41
213 -521 223 -552 l10 -33 222 0 222 0 12 28 c7 15 40 95 72 177 33 83 66 164
73 180 8 17 42 100 76 185 34 85 136 338 226 562 90 224 164 410 164 413 0 3
-115 4 -256 3 l-257 -3 -29 -80 c-16 -44 -35 -98 -42 -120 -8 -22 -35 -98 -61
-170 -25 -71 -50 -141 -55 -155 -4 -14 -29 -83 -55 -155 -26 -71 -54 -150 -62
-175 -9 -25 -19 -48 -22 -52 -4 -4 -80 199 -170 452 l-164 460 -259 0 -258 0
16 -37z"/>
</g>
</svg>
