<svg xmlns="http://www.w3.org/2000/svg" width="243.247" height="267.044" viewBox="0 0 243.247 267.044">
  <g id="Groupe_20" data-name="Groupe 20" transform="translate(-933.863 -3595.406)">
    <g id="Fond_de_carte_des_13_nouvelles_régions_de_France_métropolitaine" transform="translate(932.1 3598.174)">
      <path id="path386" d="M32.74,116.888l-1,.768-2.211.276-.445.614-1.5-1.121-2.226,1.489.8,1.075-1.2,1.643-1.566-.906-2.871.092v1.919h-.507l-.184-.89-1.136.184-.215-2.38-1.2,1.32-1.09-.461-2.241.215-.384.967-1.029.246-.184-1.044-2.472.322v.66l-1.336.077-.706-.491-.921.461-.184,1.105-2.533.092-1.489,1.8,1.121.844-1.489,1.213.522.921-.4,2.211,1.75.215.522-.507.23.322,3.731-.491.752-.522-.645.614.246,1.213,1.8-.8-.353,1.213,2.149.107-.046.261-2.149-.077-1.8-.461-2.318-1.105-1.551,1.781,1.827.614L6.5,135.28l.737-.583,1.013-1.551,1.888,1.09.921.2.353,1.382-.522.906-1.151-.077H8.56l-1.9.292-3.332.184-.8,1.059,1.136.676,1.044-.092.86.768,1.228-.092,1.95,2.226.461,2.4-.737,1.474,2.226.43,2.3-.107.553-1.013-.568-.783.368.169.875-.092,1.535.86,1.136-.215v-.476l.092.4,1.29,2.119,2.9.2.061-.353.491.706,1.735.307h1.167l.015.015,1.121,1.8,1.689.415.138-.184-.092.292,1.428.629,1.7,1.673.537,1-.4,2.549,1.336.983.752-.86-.629-.829v-1.474l1.105.261.307-.921.138.322,1.412,1.228.722-1.182-.092-.184.322.445.077-.015-.921,1.167,1.29.43.89,1.366,5.251-.476,1.029.23-.491.415.107,1.013.276.215.522-.092.783-.768.507.583H47.08l1.873-.967,2.779-1.09.092-2.7.614-.338,1.781-.936,6.018-.307.4-1.121.906-.89,2.18-.292.092-1.029,1.228.169.844,1.151,2.1.507.43-.89.491-1.719,1.213-3.024.6-.338,1.735.215V141.3l-.676-.676v-2.717l-.292-.967V135.48l.967-.967v-2.042l-.476-.384.092-2.717-.844-.415-1.167-.015-1.044-.829-1.09,1.3-.875.107-.737,1.013-.645-.154L64.091,129l-.553-1.781-.322-1.32h-4.79l-1.551-.952,1.213-1.643-2.656-.107-1.013,1.151v.015l-.507.568-1.888-.2-.2,1.075-.875.077-.092-1.29-1.167-.353-.476.553v-1.827l-1.336,1-1.766-.292-.614,1.2-3.577,1.95v.906h-.476v-1.689l-2-.937.184-1.72-1.827-1.336v-1.673l-1.336-.292.092-1.551-1.044-.092.092-1.075h-2.18l-.215.66-.476-1.136Zm4.79,35.941.906.215.86,1.029-.368.583-1.105-.338-1.474-.691,1.412-.215Z" transform="translate(0 -60.569)" fill="none" stroke="#384d9d" stroke-width="0.9"/>
      <path id="polygon388" d="M129.118,140.232l-1.105.107-.415.983-1.32.537-2.61-.384L121.1,143l-.952-.676-1.443.967-.952-.691-.691-1.167-1.551-.645-.983.783-1.735-.2-.092,2.733.476.384v1.781l-.967.967v1.6l.292.983v2.81l.676.676v2.364l-1.5-.184-.768.445-1.274,3.132-.476,1.7-.154.322-.169.338-.154-.031-1.612-.4-.86-1.167-1.658-.215-.092,1.09-2.042.276-1,1-.384,1.013-5.849.292-2.641,1.4-.092,2.671-2.61,1.029-1.8.937H86.621l-.629-.737-.937.937-.722.138.629.43-1.8,1.612.476.476.338.676-1.013,1.412,1.2.645,2.011.43.138-.614.921,1.167h1.873l1.244-1.351h.937l-1.244.629.092,1.059.353.814-.937.952H88.295l.246,1.766,2.18-.4L93.07,181.5l-.031.046-.107.138-2.794,3.592-.092,2.41,2.963,2.871-.107.952h.921l1.812,5.435,1.95.967,1.95,1.95H101.7l.86,1.919h2.134l.937,1.412,2.349,1.167.092-1.259.384.368,3.009-1.812,1.2-.077.583,1.566,1.888-.8,1.551,1.167,1.29-.614,1.105-.307.491-.583,1.474-.952-1.167-1.182-.676.507-.046-.476.691-1.29-.676-1.136.553-.737L119.415,194l-.906-1.4.676-.89-1.551-1.735.568-1.259-2.334-1.95V185.63l-.875-1.228.246-.107,1.566-.676,2.994.691,1.443-.967v-1.274l2.487-.184,2.364-.476,2.487-.092.261.583.844.737.737-1.274,1.781-1.873h.783l1.105-4.007,1.551-1.842-.107-2.119.967-1.259v-.66l-.445-.553.276-.568.553-1.105,1.827,1.274h1.3l-.522-1.719.936.629.722-1.044,2.886-.8-.507-1.228.6-.768,1.443-.568,1.382-1.8v-1.735h.936l.415-1.474.092-2.088-.906-.844.691-1.213,1.228-1.566-1.458-1.029-1.244-.215-1.351-2.027h-.6l-.031.292h-1.95l-.952-1.428-1.6-.568-.461-3.362-.844-1.167-2.717.092-2.595,2.4-1.32-.077-.138-.015-.476-1.7-1.244-.476-.368-2.073-.952-.844Z" transform="translate(-41.015 -72.444)" fill="none" stroke="#384d9d" stroke-width="0.9"/>
      <path id="polygon392" d="M141.381,219.545l-1.888,1.98-.215.384-.353.614-.522-.43-.307-.737-2.717.107-2.38.476-2.733.2v1.4l-1.213.8-2.963-.675-2.226.952,1.029,1.459v1.182l2.272,1.888-.568,1.228,1.52,1.7-.66.86.983,1.489.292,2.595-.6.8.676,1.151-.645,1.228.123,1.075.875-.66.722.752-1.182.752-.476.568-1.044.292-1.151.537-.015-.015-.261-.215v.031l-1.259-.952-1.766.752-.553-1.5-1.459.107-3.163,1.9.722.66-1.443,1.167-.169.921-1.259.154-.752-.844-1.873-.169-.2-.921-1.259-.844-1.873.676,1.213,1.75h1.366l1.3.829,1.105.89,1.965-.092.368.844,1.336.292.476,1.32.829.353-.077.8-1.09-.169-.491.722.875,1.274-.43,1.934-1.182-.092-.307-.66-.461-.4-.2-2.364-1.689-.215-1.535-1.873-.23,3.823,2.211,1.643.184,1.766.384,2.088.215,2.272,1.244-.123,1.98,1.627,1.274.722.107,1,1.121.2,3.009,3.009.676,3.1.061.292h.015l.768,3.255.184,2.733-.261.415-.4-1.95L124,270.117l-4.882-4.406.123-2.073-1.2-.123-1.612,2.41-.476,8.091-1.244,8.152-.875,6.341-.092,1.643.292.046.66-2.18,1.228-1.6,1.766,1.612.2.537.415.583-2.027.092-.415-.614-1.136.461-.215,1.489-1.059,1.443v2.226l-.015.061-1.7,9.135-2.211,8.444-.676,3.27-.553,2.288-1.351,2.318-.061.107-.092.138-.307.553-2.18,2.656-1.658.66-1.366.2v1.259l1.244,1.136,1.643.077.092,1.244,1.581.123.368-.829,1.7.722,1.075.261.23.983-.645.568V331.4l-1.336.676-.107,1.013.921,1.044,1.735.537.322-1.566.537-.6-.061.86.752,1.075h1.719l.752,1.029,2.334.384,2.226,1.366h3.546l.2,1.934,2.5,1.95,1.044,1.228,1.151-.614.86-.169.491.491,2.717-1.489.154-2,.768-.568.384-3.071,1.336.261.737-.476-.676-1.366,2.5-2.134,1.551-3.485,1.013-1.32-1.9-2.856,1.059-.967-1.735-2.856-2.579-.184-.031-.031-.107-.2-.568-.983.645-1.75.983-1.274-.292-1.612.8-.8-1.151-1.934.86-1.029.967-.184.983.415,1.259-1.075.415,1.228.553.8,1.274-.338-.107-1.336.322-.691.261-.537,1.09.921,1.5-1.5.629.89,1.719-.307,1.812-.2.768-1.351,2.717-.261,1.5,1.489.568-.553,1.059-.322-.384-1.336,1.29-.338,1.98-.43-.415-1.228.522-.6.522-1.965-1.059-1.151.6-1.934,1.336.8,2.364-.43-1.044-2.272-.722-2.7,1.827-.077.476-1.244.031-.077.89-.875.092-1.382,2.042-.184,1.5-2.134-.676-.23-.077-.8,1.6-.2.123-1,.706-.461.952-1.673-.89-.983v-.937l.706-.614.061-.015,2.027-.936,2.334,1.044,1.919,2.748,1.228-.169,1.52-1.52.537.952,1.167-1.151,1.32.353.061.461,1.535-1.075-.43-1.059-.522-.537.645-.8h.814l.507-1.612.415-.814-.292-1.72,1.182-1.643,1.781-1.09.092-2.533.614.353,1,1.09h1.09l.691-.8-.491-1.182.461-1.7-.307-1.7-.568-.66v-1.259l.875-1.443-.215-1.443-.123-.138-2.073-2.088-.154-.706,1.719-1,1.121-.614.276-1.351,1.182-.89-.4-1.919-.768-.983-.184-2.932-1.09-2.595-1.075-.384-.844-1.489-.691.875-.522-.66v-1.151l-1.228-1.735-3.224.384-1.812-.461-4.928-.6-.568,1.535-1.6-.077-.384-.215-1.151.107-.921-.629L168.34,242.7l-.215.246-.077.092-.123.138-1.52-1.52-.921.906-1.735-.123.215-1.627-1.075-.583-.6-2.042-1.581-.215-.921-.921-1.75-1.382.353-1.059v-1.934l-1.735-1.72-.184-1.351-1.658-1.735-.568-2.334-.706-.307-.829-1.136-.967.614.184,1.013-2.318.553h-2.717l.077-1.013v-1.934l-2.3-.676V221.48l-1.858-.384-.384-1.551h-1.044Zm-24.365,35.634.092,1.4.169.322h-.967l-.138-.6Z" transform="translate(-50.331 -112.792)" fill="none" stroke="#384d9d" stroke-width="0.9"/>
      <path id="polygon398" d="M244.436,103.263l-.921,1.136-.6,2.165-.568.952h-.015l-.061.123-2.671.768-.476.6.522.814v.844l.706.154-.338.353.077.752.169-.123.829.829.292,1.151.737.737-.353.967-.015,1.059.645.722-.66,1.136.722,1.75,1.32.937.2,1.105,1.151.184.276,2.042.921,1.136,1.612.307.353.061.169,1.151.2.322.215,2.687,3.27-.292,1.182-1.105,1,.814,2.549.184.6.89.353.522,1.105.553.092,1.458-1.627,1.121,1.09.967,1.105-.706,2.595.092,1.029-.2.276-.752.844.077.2.86,2.564-1.443,2.149-2.533-.783-.875.614-1.32,1.643-.814,3.761.184.8-.614.2.2.246-1.9.384-1.888.676-.875.092-1.105,1.336-.568v-1.029l-1.474.092-.23-.507.476-.844-.414-1.566-.737-.461.184-1.167.783-.507-.107-.6.384-.476-1.766-.368-.491-1.136-.89-.307-2.518-2.426-.292-2.134-1.182-.86-.691.353-.89.722-.936-.292-1.627.676-1.382-.8-.614.814-.737.077-.553-.445-1.044-.614-1.121.752-.169-.169-.43-.415-2.134-1.274-2.088-1.09-1.09.491-1.075.276-.722-.553-1.627-1-1.29.983-1.766.2-2.518-.2-.537-.86-.461-1.09Z" transform="translate(-120.454 -53.637)" fill="none" stroke="#384d9d" stroke-width="0.9"/>
      <path id="polygon400" d="M257.6-2.174,254.417-.685l-4.775.768-.169.031h-.031l-.276.046V.175l-5.1.967-4.345,3.332V17.493l-.015.2-.031.307-.246,3.1,2.119,1.919v.66l-2.472-1.474-3.332,4.084,1.044.445,1-.092.43.875,4.222,4.13.276,1.673.921,1.689-.261.322-.629.752-.476,1.2h.768l-.322.783-.384,1.98.568.967v1.75h.86l-.936,1.719-.307.952.89.8.261,2.165.415.66-.43.107-1-.553-.246,1.873.23-.292.276.645.629,1.029,2.7.2,1.858-.2,1.2-.921,1.443.89.829.629,1.244-.322.967-.445,1.965,1.029,2.088,1.228.737.752,1.182-.783.86.507.629.507.983-.107.537-.706,1.29.737,1.658-.691.983.307.983-.8.507-.261.031.031v.015l.154.107.123.077.629.461.292,2.1,2.61,2.518.844.307.507,1.167,1.766.368.276-.353.476-.983,1.443-.676.768-2.027.952-.645-.629-.86h-1.2l-.123-.43.783-.353.491-.737-.89-.6.215-.676,2.318-.184-.491-1.09-1.3-.86V47.676l1.72-1.274H282.1l-.2-1.013.967-.415,1.612,1.059.844-.23-.092-3.378.292-1.121.415-1.459-1.244-.66.215-.568,1.858-.4V36.944l1.428-.752.415-1.274-.491-.783.092-1.336.906-.8-.89-1.689.276-1.827h-2.149l-.061-.737,1.919-1.151-.322-2.011-1.673-.445.338-.353v-1.32l1.489-1.09-.445-.875-3.147-2.472-5.512.292-.568.952h-.445l.092-3.27-1.627-1.919-1.151.184-.691-.783-1.919.86L272,13.716l-1.3-.184-.353-1.136-.092-3.915-.875-.384-.107-.629H268.7L268.5,6.3l-1.412.123-2.441.783-1.136,1.412h-1.013l-.706-.875-.276-1.029-1.029-1.167h-1.336l-.507-.937V3.046l.675-1.059L258.9.451l-1.3-2.625Z" transform="translate(-118.737)" fill="none" stroke="#384d9d" stroke-width="0.9"/>
      <path id="polygon410" d="M396.285,333.013l-.967.43-.2,1.412-1.474.169-.276-1.259-.645-.66-1.842.2-.752.645-.4,2.119.353.583,1.98.2.384,1.213.737.368v1.858l-1.735-.077-.768.844-2.18-.384-1.228,1.044-.875-.384-1.412,1.105.491.875-.645.645h-2.487v1.382l.722.368-.215.491-1.551.629-2.073.2L378.6,349l-.092,1.228,1,.8-.89,1.044-1.228-.614-1.72-.123-.246,1.075.875.614-1.075.706.445,1.812,3.27.875.583,1.259.89.169-.307,2.932-.015.154-.368-.43-.937-.814-.553,1.612-.783.691-.184-.015h-.138l-.169-.015-.645-.046-1.366-1.013-.4-1.29-2.779-.2-1.9-.184-.169-.983.645-1.412-.23-.169-1.182,1.013-1.781-.184-.307-.522,1.351-1.842-1.474-1.4-1.489.123-1.105,1.735.292,1.888,1.566.184-.184.507-1.228.092-1.351,1.366-.23-.307.276-1.919-.66-.783-2.763.415-.6,1.213.368.2,1.581,2.641v2.2l2.856,2.84v1.09l-1.29.737-2.487,1.412-.691,5.082-2.81-.384-.875,2.349.629.875-3.025,1.858-.967,2.226,3.255.154,3.976.292.476.476H359.07l-1.09,1.873,4.329.906,3.593-.629-1.827-1.72.952-.8,1.7.722.86,1.858,5.6.092,1.32-.537.2.629-1.735,1.52,2.288.092-.307.752-.768.906h4.99l2.241.737.169.23.307.43,1.7.752.476,1.95,1.213.215,1.013-.706,1.673-1.029,2.779.276-.061.537-.906.445.061.276,2.671.123-.783-.814-.184-1.105,1.105-.768,1.382.445.537.184.537.645.844-.583.184-1.274.676-.583h2.042l.568-.86,1.274.384,1.673-.722v-2.763l-1.6.077,1.059-.66.8-1.09.215-1.489,2.733-.384,1.474-1.643v-.015l.092-.092.107-.123.015-.031.092-2.073,1.842.368.676-.875,1.044.215.092-3.024,2.134-.169,1.9-1.735h1.8l.107-1.121,1.781-1.075-.983-2.226,1.428-1.228-.276-1.4,2.073-.66.6-2.211-.292-1.474-.491-.891-.414-1.366-1.551.123-4.529,1.627h-1.366l-2.441-1.98-2.564-.706H406.6v-1.673l-2.011-1.244v-1.7l1.551-.215-1.013-.89-.952-.292-.43-1.121.353-.783,1.75-1.873-.276-1.351.154-.154.031-.031.23-.246.645-.706,1.121.107v-1.121l-1.336-.676-.292-2.794-1.182-.43-1.336.2-2.38-1.2-.4-2.886-1.458-.476-.461-.921-.66-1.458-1.965-.092Z" transform="translate(-178.146 -170.515)" fill="none" stroke="#384d9d" stroke-width="0.9"/>
      <path id="path416" d="M455.508,443.7l-1.6,1.075.215,1.044.706.906-.844.645.2.4.2.4-.553.629v.983l.967.875V451.9l-.553,1.167-.491.215-.292-.384-.461-.645-1.382.107-.292-.2h-1.244l-1.121,1.044-.384,1.581-2.441.461-1.98,1.673-.353,1-.783-.077-.66-.783-.307,1.873-.691.276-.215,1.658.261.614-1,.722-.261.706h-.814v1.29l1.029.722,1.581.921.077.568-.829.261-1.658.307v.844l.568.583.107,1.965,2.211.706.706.169.6.936-.4.553-.768.276-.6,1.09-.614.722.307,1.919,1.52-.092.415.307,1.351-.66.23.23-.676,1.443.629.629-1.044.783-.86,1.919,2.3.537,2.687.246-1,1.151a1.383,1.383,0,0,0-.86-.061.145.145,0,0,0-.061.031s-.02.019-.046.046a.173.173,0,0,0-.046.046l-.031.061a.077.077,0,0,0,0,.015v.015a.256.256,0,0,0-.015.061v.046a5.225,5.225,0,0,1-.645,1.566l-.061.092,1.029,1.121,1.766,1.09,3.285.875.937.384.737.307-.629,1.167,1.689-.108.292.66h1.75l.445-2.088-.86-.169,1.274-1.336-.537-.537.077-.722,1.735-.952.123-1.29-1.366-.108-.568.491v-.491l1.489-.092.507-1.228.4-3.408v-.031l-.292-1.428-.031-1.3-.061-2.871,2.3-3.255v-5.419l-.046-.077-.906-1.8-.292-5.757-.691-1.09-1.228-.952-.2-3.47.6-1.643L457.4,447l-.476-2.1-.43-.645-.983-.553Z" transform="translate(-222.308 -226.823)" fill="none" stroke="#384d9d" stroke-width="0.9"/>
      <path id="polygon418" d="M173.36,55.263l-.676.829-4.1,3.147-7.277,1.827L156.488,62.8l-3.93,2.119-2.349,3.5-.522,2.825,2,1.5,2.073.445-1.919.338-3.685,2.134-4.053,1.6-3.209-1.8L133.014,74.3l-1.858-.967-2.733.706-.89.215-.092-2.165-2.472-2.932.691-1.75h1.167l-1.044-2.886-4.283-.2-2.165,1.5-2.41-1.581-3.731-1.105-.476,1.182,2.057,1.658v2l-.814,1.013.583.583.215.154-.184,1.781.691,1.566,2.211,2.5.461,2.165.476.691v3.408l1.151,2.349V86.8l-1.259,2.518,1.4,3.593,2.088.461.154.768-.921.415h-1.965l.338,1.4.583,1.873,1.673,1.474.937.23.783-1.059.86-.107.983-1.182.89.706h1.167l.66.322v.23l1.812.215.952-.737,1.3.522v.015l.092.169.553.921,1.182.875,1.443-.967.952.676,2.641-1.566,2.579.384,1.52-.614.384-.937.8-.077.783.691.384,2.134,1.259.491.491,1.766,1.8.092,2.595-2.4,2.472-.092.706.952.476,3.516,1.658.583,1,1.474h1.95l.077.537.292-.015.077-.814h.184l1.336,2,1.274.215v-2.5l-.66-.89-.169-.629,1.32-.8,1.474-.292,1.029-1.228-.2-3.669-2.027-1.72-.092-1.658-.23-.154,1.2-1.151h1.29l3.47-1.8,1.075.445,2.533.015.645-.768V90.237l1.919-.952V87.734l.537-.445-.046-.43.629-.629-1.013-.215v-.691l-.461-.722.292-.353,2.7-.768.706-1.213.583-2.119.722-.89.123-.952.722.4.937-.261-.583-.906-.276-2.226-.829-.752.23-.737.676-1.259.507-.875h-1.075V70.14l-.553-.937.368-1.827.461-1.167h-.768l.292-.737,1-1.213-.983-1.8-.292-1.75-4.237-4.145-.522-1.013-1.121.092-.89-.384Z" transform="translate(-56.15 -29.219)" fill="none" stroke="#384d9d" stroke-width="0.9"/>
      <path id="polygon424" d="M336.742,49.7l-1,1.474-.906.906v2l-1.075.722-2.088.66L330.6,55.9l-1.32-1.029h-2.011l-.276,1.873.829,1.566-.829.737L326.9,60.6l.461.737-.338,1.029-1.474.783v1.213l-1.8.384-.353.967,1.259.676-.353,1.228-.292,1.167.061,2.564.031.614-.507.138-1.627-1.059-1.336.568.184.89h-1.888l-1.919,1.428V76.66l1.366.89.276.629-2.1.169-.338,1.075.829.553-.276.43-.936.415.246.89h1.29l.353.491-.768.522-.768,2-1.428.676-.507,1.059-.522.645.107.537-.737.476-.23,1.489.8.507.353,1.32-.476.875.368.829,1.366-.077v.507l-1.336.568-.092,1.2-.645.829-.414,2-.23,1.689.706.583H314.4l2.41,2.5-.307,2.61,1.888,1.443.952-.66,1.412,1.689.184,1.735,1.075,1.428.507,1.151,3.976.2,1.827-.921.522,1,.86.123.507-1.075,3.071-.092,1.366-.722.2-1.2h2.61l.66.368.829.461,1.689,1.8,2.134,2.886-1.274,1.366.936.645.107,1.689,1.581-.092.384.768,1.274.092.783-.43,1.443,1.8.246.568,2.3-.507.384-.937.154.031v-1.044l1.182-.522,1.535.583,1.474-.6h.952l.307-2.011.629-.737-1.013-.107-.077-.906,1.32-.292.077-.737h1.366v-1.29l1.105-.4-.292-.8.092-.061.031-.015.23-.154.614-.368-.368-.568.246-.138.66.768,1.121-.783.276-.906,1.658-.276.384.307-.092,1.059,1.351,1.029.875-.092.844-.676h1.888l1.443,1.627h.583l.86-.537.107-.553.629-.322.768.522.844.952,3.055,1.612.43.829,1.566.092,1.673,1.29.246.6-.092,1.09-.476.89.215,1.336,1.366-.2.246.937.507,2.165,1.075-.169-.184.921.783.676,3.654-.092,1.919-1.52.092-2.134,1.013-1.3-1.32-1.52-.614-1.428.737-1.029v-2.426l.476-1.121v-1.934l.89-1.29-.983-1.382-.077-2.487-.015-.215v-.107l-.015-.169,2.487-4.867.031-.046-.307-2.794,1.151-3.746.292-3.193,2.487-1.827V86.363l.89-1.167h.768l.952-.952-.2-1.658.829-2.2,1.551-.353-1.612-1.274-2.41-.276-2.165-1.09-1.4.844-.737-.814H392.38l-1.52.415v-.015l-.276.077-.138.046-.031.015-.6-.86-1.934-1.182-.706-1.105-2.441.215-1.351,1.244-3.147.092-.906-.629a3.735,3.735,0,0,0-1-1.213c-.019-.01-.035-.036-.061-.046s-.045-.007-.061-.015l-.092-.015v.138l-.046-.138a3.913,3.913,0,0,1-1.351-.553l-.061-.031-1.5.629-.092,1.121-1.412.169L372.713,74l-.537-.184V72.484l-1.351-.583-.092-2.272-1.013-.983-2.042-1-1.059-.015-.292.2h-.875l-1.336-1.151-1.551.092-1.2,1-.276.445h-1.474l-.568-.583h-1.535l-1.735-1.919h-2.334l-1.151,1.059-1.643.092-.568.583h-.4l-.368-1.75-.829-.829-.384-.061-.307-.046-.491-.077-.384-1.873-.844-.645-2.641-.292-.461-1.2-.906-.6-3.024-.384-.169-2.027.384-.384v-1l-1.5-.952L338,54.4l.43-1.059L337.8,52.8l.983-.89V50.039l-.476-.338h-1.566Z" transform="translate(-157.813 -26.39)" fill="none" stroke="#384d9d" stroke-width="0.9"/>
      <path id="polygon432" d="M200.622,341.138l-2.073.967-.507.077.123.184-.614.522v1.182l.829.921-.8,1.4-.8.522-.092.906-1.658.2.107,1.274.491.169-1.2,1.7-2.149.184-.107,1.52-.829.814-.476,1.228-2.011.092.829,3.071.844,1.842.046.107-1.888.338-1.551-.921-.752,2.456,1.059,1.151L187,364.766l-.614.706.368,1.075-1.673.353-1.581.415.384,1.351-.507.138-.246.077-.077.031-.43.4-1.4-1.366-3.009.292-.768,1.351-1.673.184-1.535.261-.722-1.013-1.566,1.566-1.182-1-.768,1.643.077,1.167-.829.23-.415-.568-.537-1.643-1.443,1.244-.906-.368-1.167.215-1.044,1.274,1.121,1.919-.737.737.292,1.643-.906,1.182-.722,1.934.844,1.474,2.349.169.246.031,1.52,2.518-1.059.967,1.934,2.886-.906,1.182-1.52,3.439-2.656,2.257.66,1.336-.415.276-1.535-.307-.4,3.255-.783.583-.169,2.334.4-.246,1.551.921,1.873,1.412.184,1.136,1.612,1.32h1.32l3.117-1.32,1.29,1.489,1.98.522.676-1.121.737.322,1.766.123,4.191.292.2-4.713,1.151.169,1.766,1.044.706.4,3.04.583h1.182l1.627,2.119,4.115-.2,1.658,2.625,1.52-.614,4.068.568.276,1.52.046.292.154.906,1.474,1.382,2.825.783.092,1.673,1.643,1.443,1.274-.23,1.643-2.011,1.919-.368,3.1,1.044,2.779,2.38.814-1.029h.553l.706.507.737-.353.092-1.336,2.825-.66.952-1.244,1.382-.461h1.919L231.1,415l1.75.123v-1.75l-.814-1.121-1.3-.568-.2-8.045-.092-2.978.123-3.332-1.244.092-.86-1.274.629-1.013,1.581,1.489,1.551-1.244,1.013-.983.107-.936.077-.553,3.424-1.059.368-.829,2.671-.092.875-1.09,5.174-4.13,3.224-2.272.906.061,1.689.123v1.934l2.334-.108,1.29.061.875-2.042,3.209-1.965-.722-1.013.752-1.98,2.871.4.691-5.235,3.807-2.165v-1.382L264,367.284v-2.149l-1.673-2.779-3.608-2.027-.276,1.6-1.121.107-.415-1.5-1.6.307-.246,1.827-.89-.322-2.38-1.551-.952.491v-2.564l-1.612-.967-.415-.246.276-2.011-1.643-1.781-.676-3.485-2.533-3.255-1.735.415-.368-1.3h-1.213l-.184,1.182-2.272.706-1.735-4.437-2.871,1.044-.722,1.612-1.75-1.167-1.4,4.406-1.29,2.963-.66-.829-.292-2.81h-.937l-.43-2.733-1.888.276-.246-1.627-.384-.614-2.9,2.472v2.226h-.66l-.276,2.211-.66.261-.522,1.182h-2.81l-.261-.4h-1.535l-.814,1.336-.138-.015-.66-.092.522-1.581-1.213-.537,1.213-2.825-1.673-1.244-.553-3.562-1.658-.445-1.013,1-.537-.952-1.735,1.719-.952.123-1.858-2.656-2.549-1.136Z" transform="translate(-80.663 -174.648)" fill="none" stroke="#384d9d" stroke-width="0.9"/>
      <path id="path436" d="M278.706,241.795l-1.336,1.735-.768.092-.783.814-.967-1.059-2.733,2.748v1.658l.476.4.077.614-1.213.952-1.213-.368-2.487.507-1.274,1.459-.6,1.29.261-.061,1.075,1.52v1.151l.8,1.044.66-.829.691,1.2,1.044.384,1.029,2.41.046.752v.015l.138,2.226.783.952.353,1.7-1.121.844-.276,1.336-1,.537-1.919,1.105.215,1.013,2.211,2.211.184,1.244-.875,1.428v1.443l.6.691.276,1.551-.215.768-.276.967.476,1.105-.491.568h-.814l-.921-1.013-1.105-.629-.107,2.856-1.658,1.013-1.336,1.812.307,1.75-.384.737-.445,1.443h-.737l-.89,1.105.66.66.322.814-1.228.86.537,3.362,1.581,1.182-1.244,2.871,1.244.553-.553,1.658,1.351.184.814-1.366h1.2l.261.4h3.178l.553-1.244.691-.292.276-2.119h.691v-2.38l2.549-2.165.154.246.276,1.873,1.919-.276.4,2.7h.936l.261,2.579v.046l1.029,1.274,1.489-3.424,1.29-4.038,1.7,1.151.814-1.827,2.426-.875.061-.031,1.735,4.422,2.7-.829.184-1.121h.722l.4,1.366,1.827-.445,2.088,2.671.184.23.092.107.66,3.5.015.046,1.612,1.735-.292,2.057,2.057,1.244v2.871l1.228-.629,2.272,1.474,1.259.476.261-2,1.136-.215.4,1.489,1.6-.169.246-1.4,3.071,1.735.537-1.105,1.366-.2,1.075-.154.476.553L316.735,313l.522.66,1.5-1.52,1.3-.107.368-1.029-1.7-.2-.246-1.566.967-1.52,1.213-.092,1.2,1.121-1.32,1.8.476.814,2.057.215.768-.66-.4.875.23,1.3,2.119.2,2.595.184.368,1.2,1.5,1.121,1.351.092.937-.829.43-1.274.583.522.8.937.43-4.038-1.013-.2-.583-1.244-3.224-.86-.353-1.443,1.259-.829-1.075-.752.154-.645,1.382.092,1.412.706,1.228-1.443-1.105-.906.077-1.044.553-1.735,1.919-.184,1.719-.691.154-.338.031-.092.092-.2H337.4l.107-.23-.814-.415v-.906H339l.89-.89-.461-.844,1.075-.844.875.384,1.259-1.075,2.211.4.768-.875,1.919.092v-2.349l-.8-.4-.384-1.274-2.042-.2-.215-.368.353-1.9.6-.507,1.627-.184.491.491.307,1.443,1.965-.23.2-1.474.752-.338,2.073.107-.077-.154,2.656-1.059,1.029.66H357.3l.108-1.213,1.167-.629.491-.583,2.549-.983.322-1.766-.476-.737,1.4-2.38-1.351-.507-.368-1.336-2.579-1.52a15.4,15.4,0,0,0-.107-3.454l.184-.154h-.461c-.317.08-1.408.162-1.7.184l-1.366-1.535.046-1.658.046-1.443,3.239-1.351.415-1.029-.2-2.211-2.226-2.318-.553.322v-2.149l-1.842-.875-.061-.629,1.044-1.136v-1.459l-1.735-1.827-.092-1.32h-3.439l-2.226.384-2.027,1.643-.522-.8-1.244.107-1,2.2-.015.046.123.952.937.768-1.781,1.167-1.2,1.121h-2.963v-1.6l1.059-.614,1.8-.2.138-1.167-.522-.353,1.4-1.766-.246-.691-1.8-.967-4.022,4.437h-2.579v-1.105l-1.7-.844-1.873,2.042-1.228.169v-1.274l-1.29-.583-1.919-2.7-1.719-.66-.568-1.259-1.105-.23-.983.691-.676.184-1.044-.875-1.2.123-.722,1.351-1.812,7.062-.261.583v.015l-.276.66-.461-.061-.353-1.842-.537-1.643-1.213.107-.783.783-.568-.768-.89.8-1.121-.722h-1.044l-.461.353-.23,1.244-.322,1.766h-1l-.706.706-.522-.522-3.117-.476-.046-.015-1.167.691h-.614l-.169-.66-1.428-.292-.092-1.52-.261-.092,1.888-1.443.092-3.853-.752-1.059h-1.535l-.568-.768h-1.627l-.4-.491v-1.4l-1.95-3.7-1.121-.814-1.873,2.579-.568.138-.276-1.167-1.059-.476-.4.814H286.2l-.215-.937-1.136.66-.936.522-1.075-1.167-1.612-.768-.092-1.274-2.426-.215Z" transform="translate(-132.202 -124.111)" fill="none" stroke="#384d9d" stroke-width="0.9"/>
      <path id="polygon452" d="M212.311,119.826l-.737.614v1.5l-1.919.952v1.489l-.491.583h-2.3l-1.182-.491-3.5,1.827h-1.351l-1.566,1.489.415.276.092,1.627,2.027,1.719.184,3.424-.875,1.075-1.4.276-1.581.937.215.875.66.875v2.364l.292.031,1.182.844-.322.4-.107.138-.077.107-.553.691L198.6,144.9l.983.906-.092,1.919-.353,1.228h-1v1.919l-1.274,1.658-1.443.568-.752.967.23.583.077.184.046.123.092.184-2.671.737-.614.89-1.382-.906.645,2.119h-.814l-2.027-1.428-1.075,2.165.507.614v.461l-.967,1.259.107,2.1-1.5,1.781-1.167,4.176h.2l.384,1.52,1.8.368v1.151l2.3.676v1.7l-.107,1.3H191.8l2.641-.614-.215-1.105.568-.353.706.983.645.276.568,2.272,1.643,1.719.184,1.351,1.566,1.551.154.154v1.75l-.415,1.228,1.9,1.489.983.983,1.489.2.583,1.98,1,.553-.154,1.228-.66.123v.292l.292.061,2.472.184.814-.8,1.535,1.535,1.934-2.226.8.537,1.151-.107.353.184,1.9.107.568-1.52,4.667.568,1.858.476.676-.077.246-.031h.046l2.226-.276.491-1.044,1.2-1.366,2.3-.476,1.3.4,1.458-1.151-.107-.906-.476-.368v-1.412l2.441-2.441.967,1.059.921-.952.783-.092,1.32-1.7,2.011.169.015.4.292.031.752-2.41-.476-.875.077-1.2.307-2.564-1.059-1.059.2-2.272-.983-2.027-.092-1.382-1.75-1.351-.246-1.044.844-1.228v-1.919l-.89-1.059-.184-.215-.015-.015-.061-.061-.077-.8,1.95-.568-.338-1.2-.292-1.535-1.244-1.75-.23-.844h1.766l1.443-1.029.2-1.566-.8-.906,2.426-2.042v-1.873l-1.274-1.351-.476-1.535-1.842-1.75-2.318,1.3-.169-.676-1.274-.107-.292.8-.844.154-2.641-.092-1,.645-.645-.568,1.459-1-.107-1.8-1.2-.6-.983-1.474-2.61-.184-1.121-.921-1.29,1.213-2.487.215.015-.015-.261.031-.107.015-.031.015-.2-2.472-.2-.292-.2-1.32-2.057-.4-.814-.983-.292-2.18-1.151-.184-.184-1.013-1.351-.967-.645-1.535.706-1.182-.722-.8v-.875l.415-1.121-.814-.814-.292-1.151-1.075-1.075Z" transform="translate(-92.491 -62.063)" fill="none" stroke="#384d9d" stroke-width="0.9"/>
      <path id="polygon464" d="M302.3,151.107l-.906.691-3.731-.184-1.812.906-.737,1.581.752.829-2.042,2.41,1.812,1.7.461,1.5,1.259,1.351v1.612l-2.564,2.149.906,1.029-.169,1.3-1.259.906h-2.057l.338,1.244,1.244,1.735.292,1.52.261.921-.967.276-.937.276.108,1.136,1.151,1.336v1.735l-.875,1.259.307,1.259,1.72,1.336.092,1.274.967,2.042-.2,2.334,1.059,1.044-.292,2.441-.092,1.29.461.844-.722,2.3.077.844,1.689.783,1.213,1.336,1.151-.645.783-.476.184.783h1.643l.353-.722.66.292.307,1.32.967-.23,1.781-2.426.8.568.215.4,1.689,3.178v1.459l.553.676h1.627l.568.768h1.535l.6.844-.092,3.623-1.98,1.52-.169.384.368-.046.169.046.092,1.551,1.458.292.184.706h.921l1.151-.675,2.963.461.66.66.829-.829H322.2l.583-3.132.292-.23h.86l1.228.814.814-.737.583.768.952-.936.875-.077.445,1.4.4,2.027.891.123.629-1.474,1.8-7.062.645-1.182.921-.092,1.059.89.844-.215.952-.66.829.169.568,1.228.6.23.046.015,1.09.43,1.919,2.687,1.2.537v1.428l1.673-.23,1.781-1.965,1.351.676v1.213h2.994l4.161-4.575-.246-.138L355.1,203l1.551-1.842-1.044-.415.077-.507,5.911-5.542.046-.046-.184-4.575,2.011-1,1.443-.676,1.412-1.3.107-1.8,1.259-.645L370.868,181l-.461-1.105.937-.415,1.382-1.673-.829-.829-2.242.461-.031-.169,2.2-2.533H371.8l.215-.246,1.366-.215-.507-2.2-.322-1.2-1.336.2-.154-.952.445-.829.107-1.244-.307-.737-1.8-1.4-1.489-.092-.322-.645-.046-.092-3.086-1.627-.844-.952-.967-.645-.906.461-.107.568-.676.43h-.368l-1.443-1.627h-2.134l-.86.675-.676.077-1.136-.86.092-1.059-.6-.476-1.965.322-.307.983-.814.583-.66-.768-.706.43.369.568-.921.568.276.752-1.013.368v1.2h-1.336l-.092.783-1.366.307.123,1.4.706.077-.338.384-.276,1.842h-.737l-1.443.568-1.535-.583-1.474.645v.875h-.031l-.415,1.013-1.9.43-.154-.353-1.643-2.057-.921.522-1.029-.092-.384-.783-1.489.092-.092-1.551-.783-.522,1.213-1.3-2.288-3.086-1.72-1.827-1.612-.906h-2.932l-.215,1.29-1.151.629-2.994.092-.077-.338-.154.338h-.077l.031.123-.43.921-.491-.077-.6-1.121L316.09,163.8l-3.715-.184-.461-1.013-1.029-1.4-.184-1.735-1.658-1.965-.983.691-1.581-1.213.292-2.579-2.579-2.7h-1.167l-.722-.6Z" transform="translate(-147.464 -77.976)" fill="none" stroke="#384d9d" stroke-width="0.9"/>
    </g>
    <circle id="Ellipse_3" data-name="Ellipse 3" cx="12.5" cy="12.5" r="12.5" transform="translate(1146 3785)" fill="#fff" opacity="0.32"/>
    <text id="V" transform="translate(1147.5 3785.5)" fill="#384d9d" stroke="#384d9d" stroke-width="1" font-size="20" font-family="Lato-Bold, Lato" font-weight="700" opacity="0.67"><tspan x="4.055" y="20">V</tspan></text>
  </g>
</svg>
