<svg xmlns="http://www.w3.org/2000/svg" width="19" height="19" viewBox="0 0 19 19"><path d="M16.217,0H2.783A2.787,2.787,0,0,0,0,2.783V16.217A2.787,2.787,0,0,0,2.783,19H16.217A2.787,2.787,0,0,0,19,16.217V2.783A2.787,2.787,0,0,0,16.217,0ZM9.537,14.473a5.01,5.01,0,1,1,5.01-5.01A5.015,5.015,0,0,1,9.537,14.473ZM15.1,5.566a1.67,1.67,0,1,1,1.67-1.67A1.672,1.672,0,0,1,15.1,5.566Zm0,0" fill="#fff"/><path d="M392.557,90a.557.557,0,1,0,.557.557A.557.557,0,0,0,392.557,90Zm0,0" transform="translate(-377.453 -86.66)" fill="#fff"/><path d="M155.9,150a3.9,3.9,0,1,0,3.9,3.9A3.9,3.9,0,0,0,155.9,150Zm0,0" transform="translate(-146.359 -144.434)" fill="#fff"/></svg>