<svg xmlns="http://www.w3.org/2000/svg" width="152" height="42" viewBox="0 0 152 42"><g transform="translate(-85 -80)"><text transform="translate(85 80)" fill="#384d9d" font-size="15" font-family="OpenSans-ExtraBold, Open Sans" font-weight="800"><tspan x="0" y="16">VILLE</tspan><tspan x="0" y="36">FRANCHE-SUR-MER</tspan></text><g transform="translate(131.398 1.92)"><g transform="translate(0 84.08)"><path d="M26.006,86.63a2.859,2.859,0,0,1-2.123-.951,1.984,1.984,0,0,0-3.059,0,2.845,2.845,0,0,1-4.246,0,1.984,1.984,0,0,0-3.059,0,2.845,2.845,0,0,1-4.246,0,1.983,1.983,0,0,0-3.059,0,2.845,2.845,0,0,1-4.246,0,2.021,2.021,0,0,0-1.53-.721.439.439,0,1,1,0-.879,2.859,2.859,0,0,1,2.123.951,1.984,1.984,0,0,0,3.059,0,2.845,2.845,0,0,1,4.246,0,1.983,1.983,0,0,0,3.059,0,2.845,2.845,0,0,1,4.246,0,1.984,1.984,0,0,0,3.059,0,2.845,2.845,0,0,1,4.246,0,1.984,1.984,0,0,0,3.059,0,2.859,2.859,0,0,1,2.123-.951.439.439,0,1,1,0,.879,2.022,2.022,0,0,0-1.53.721A2.859,2.859,0,0,1,26.006,86.63Z" transform="translate(0 -84.08)" fill="#384d9d"/></g><g transform="translate(0 87.888)"><path d="M26.006,138.63a2.859,2.859,0,0,1-2.123-.951,1.984,1.984,0,0,0-3.059,0,2.845,2.845,0,0,1-4.246,0,1.984,1.984,0,0,0-3.059,0,2.845,2.845,0,0,1-4.246,0,1.983,1.983,0,0,0-3.059,0,2.845,2.845,0,0,1-4.246,0,2.021,2.021,0,0,0-1.53-.721.439.439,0,1,1,0-.879,2.859,2.859,0,0,1,2.123.951,1.984,1.984,0,0,0,3.059,0,2.845,2.845,0,0,1,4.246,0,1.983,1.983,0,0,0,3.059,0,2.845,2.845,0,0,1,4.246,0,1.984,1.984,0,0,0,3.059,0,2.845,2.845,0,0,1,4.246,0,1.984,1.984,0,0,0,3.059,0,2.859,2.859,0,0,1,2.123-.951.439.439,0,1,1,0,.879,2.022,2.022,0,0,0-1.53.721A2.859,2.859,0,0,1,26.006,138.63Z" transform="translate(0 -136.08)" fill="#384d9d"/></g><g transform="translate(0 91.697)"><path d="M26.006,190.631a2.859,2.859,0,0,1-2.123-.951,1.984,1.984,0,0,0-3.059,0,2.845,2.845,0,0,1-4.246,0,1.984,1.984,0,0,0-3.059,0,2.845,2.845,0,0,1-4.246,0,1.983,1.983,0,0,0-3.059,0,2.845,2.845,0,0,1-4.246,0,2.021,2.021,0,0,0-1.53-.72.439.439,0,0,1,0-.879,2.859,2.859,0,0,1,2.123.951,1.984,1.984,0,0,0,3.059,0,2.845,2.845,0,0,1,4.246,0,1.983,1.983,0,0,0,3.059,0,2.845,2.845,0,0,1,4.246,0,1.984,1.984,0,0,0,3.059,0,2.845,2.845,0,0,1,4.246,0,1.984,1.984,0,0,0,3.059,0,2.859,2.859,0,0,1,2.123-.951.439.439,0,1,1,0,.879,2.022,2.022,0,0,0-1.53.721A2.859,2.859,0,0,1,26.006,190.631Z" transform="translate(0 -188.081)" fill="#384d9d"/></g></g></g></svg>