<svg xmlns="http://www.w3.org/2000/svg" width="24.991" height="17.851" viewBox="0 0 24.991 17.851"><g transform="translate(0 -2)"><g transform="translate(0 2)"><path d="M12.248,10.19,9.156,7.484.316,15.062a1.809,1.809,0,0,0,1.234.484h21.4a1.8,1.8,0,0,0,1.228-.484L15.339,7.484Z" transform="translate(0.248 2.305)" fill="#fff"/><path d="M24.178,2.484A1.8,1.8,0,0,0,22.944,2H1.548a1.79,1.79,0,0,0-1.23.487L12.246,12.711Z" transform="translate(0.25 -2)" fill="#fff"/><path d="M0,2.878V17.709l8.627-7.331Z" transform="translate(0 -1.311)" fill="#fff"/><path d="M9.167,10.38l8.627,7.331V2.875Z" transform="translate(7.197 -1.313)" fill="#fff"/></g></g></svg>