<svg xmlns="http://www.w3.org/2000/svg" width="25.43" height="20.759" viewBox="0 0 25.43 20.759"><g transform="translate(0 -36.018)"><path d="M17.194,148.619a4.668,4.668,0,1,1,0,9.321H3.642a3.644,3.644,0,0,1,0-7.288H3.9A5.67,5.67,0,0,1,15.135,149.1a4.641,4.641,0,0,1,2.059-.477Z" transform="translate(0 -101.171)" fill="#fff"/><path d="M138.029,38.355a.472.472,0,1,1-.9.28q-.007-.022-.011-.044L136.6,36.63a.472.472,0,0,1,.9-.28q.007.022.011.044Zm-3.488,1.707a.473.473,0,1,1-.672.667l-1.426-1.442a.472.472,0,1,1,.672-.656Zm12.026,8.087a.473.473,0,0,1,.259-.91l1.956.534a.473.473,0,1,1-.259.91h0Zm.259-3.875a.472.472,0,0,1-.236-.913l1.961-.519a.472.472,0,0,1,.236.913Zm-1.7-3.486a.474.474,0,0,1-.669-.672l1.442-1.426a.473.473,0,0,1,.667.672ZM141.9,38.63a.473.473,0,1,1-.91-.259h0l.534-1.956a.473.473,0,0,1,.91.259Zm-.519,2.334a4.943,4.943,0,0,1,2.243,7.392,4.668,4.668,0,0,0-4.808-.394,5.677,5.677,0,0,0-3.737-4.531,4.928,4.928,0,0,1,6.295-2.482Z" transform="translate(-123.696)" fill="#fff"/></g></svg>