<svg xmlns="http://www.w3.org/2000/svg" width="1280.385" height="232.9" viewBox="0 0 1280.385 232.9"><g transform="translate(0 -1919)"><g transform="translate(868.026 1928)" opacity="0.5"><path d="M27.75,27.24c-2-2-4.74-1.6-6.81,0A51.26,51.26,0,0,0,8.67,41.09C5.43,46.39,13.75,51.23,17,46A44.31,44.31,0,0,1,27.77,34.1C29.81,32.46,29.43,28.92,27.75,27.24Z" fill="#fbe3da"/><path d="M48.25,38.25c-.76-2.77-3.34-3.74-5.92-3.37A16.92,16.92,0,0,0,28.82,47.39c-1.53,6,7.76,8.57,9.28,2.56.84-3.32,3.32-5.28,6.79-5.78C47.46,43.8,48.88,40.53,48.25,38.25Z" fill="#fbe3da"/><path d="M54.33,2.16A25.54,25.54,0,0,0,36.31,23c-.79,6.1,8.59,8.31,9.39,2.17A16.13,16.13,0,0,1,57.28,11.33C63.22,9.59,60.29.42,54.33,2.16Z" fill="#fbe3da"/><path d="M81.87,11.61A30.87,30.87,0,0,0,60.7,33.1c-1.64,6,7.64,8.54,9.28,2.56A21,21,0,0,1,84.43,20.89C90.37,19.16,87.84,9.86,81.87,11.61Z" fill="#fbe3da"/><path d="M105.37,28.13c-1.19-2-4.51-3.31-6.59-1.73L87.15,35.28c-2.07,1.58-3.16,4.15-1.73,6.59,1.19,2,4.51,3.32,6.59,1.73l11.63-8.88C105.71,33.14,106.8,30.57,105.37,28.13Z" fill="#fbe3da"/><path d="M54.41,55.22c-2.1-1.92-4.7-1.68-6.81,0l-6.43,5.13c-2,1.58-1.77,5.19,0,6.81,2.1,1.93,4.7,1.68,6.81,0L54.41,62C56.38,60.46,56.18,56.85,54.41,55.22Z" fill="#fbe3da"/><path d="M75.61,50.71A46.67,46.67,0,0,0,59.79,66.59c-3.21,5.32,5.11,10.17,8.31,4.86A36.3,36.3,0,0,1,80.47,59C85.76,55.81,80.93,47.48,75.61,50.71Z" fill="#fbe3da"/><path d="M31.31,63a4.92,4.92,0,0,0-6.8,0l-9,7.7c-2,1.69-1.74,5.07,0,6.81a4.92,4.92,0,0,0,6.81,0l9-7.7A4.862,4.862,0,0,0,31.31,63Z" fill="#fbe3da"/><path d="M110.91,4.74C110.28,2.47,107.4.37,105,1.37A20.62,20.62,0,0,0,92.53,15.06c-1.64,6,7.65,8.54,9.28,2.56a10.63,10.63,0,0,1,5.73-7C109.94,9.66,111.66,7.47,110.91,4.74Z" fill="#fbe3da"/><path d="M139.18,10c-.65-2.37-3.46-4.25-5.92-3.36a24.31,24.31,0,0,0-14.95,14.9c-.88,2.44,1,5.27,3.37,5.92a4.91,4.91,0,0,0,5.92-3.36,13.92,13.92,0,0,1,8.22-8.18A4.93,4.93,0,0,0,139.18,10Z" fill="#fbe3da"/><path d="M140.51,29.66c-1.74-1.75-5.09-2-6.81,0q-4.48,5.13-9,10.27a4.93,4.93,0,0,0,0,6.81c1.74,1.74,5.09,2,6.81,0l9-10.27A4.93,4.93,0,0,0,140.51,29.66Z" fill="#fbe3da"/><path d="M150.93,31.92a57.449,57.449,0,0,0-5.63,16.55c-1,6.06,8.24,8.67,9.29,2.56a49.32,49.32,0,0,1,4.65-14.25C162.06,31.27,153.76,26.39,150.93,31.92Z" fill="#fbe3da"/><path d="M103.86,48.57A65.16,65.16,0,0,0,89.42,67.92c-2.71,5.55,5.59,10.43,8.31,4.86a57.8,57.8,0,0,1,12.94-17.4C115.24,51.17,108.42,44.37,103.86,48.57Z" fill="#fbe3da"/><path d="M128.11,58.49c-2.05-1.2-5.53-.66-6.59,1.73Q119,66,116.38,71.77c-1,2.37-.69,5.17,1.73,6.59,2,1.2,5.53.66,6.59-1.73q2.56-5.77,5.14-11.55C130.89,62.7,130.53,59.9,128.11,58.49Z" fill="#fbe3da"/><path d="M166.33,57.59l-6.65,12.72c-2.87,5.48,5.43,10.36,8.31,4.86l6.66-12.72C177.52,57,169.21,52.09,166.33,57.59Z" fill="#fbe3da"/><path d="M34.51,84.1A40.43,40.43,0,0,0,17.39,98.56c-2,3-4,6.71-2.26,10.34s5.64,4.24,9,2.76,3-5.09.87-7.18l.05-.09c.41-.64.82-1.28,1.27-1.89a31.79,31.79,0,0,1,3.87-4.25,32.83,32.83,0,0,1,9.16-5.84C45,89.9,40.13,81.6,34.51,84.1Z" fill="#fbe3da"/><path d="M55,90.34a26,26,0,0,0-12.28,17.2c-1.2,6.06,8.08,8.65,9.28,2.56a16.63,16.63,0,0,1,7.86-11.44C65.15,95.48,60.31,87.15,55,90.34Z" fill="#fbe3da"/><path d="M87,90c-10.54-.09-19.24,11.5-15.26,21.57,1,2.42,3.22,4.11,5.92,3.37,2.3-.64,4.32-3.5,3.36-5.93-1.66-4.19,1.19-9.43,6-9.38C93.23,99.64,93.24,90,87,90Z" fill="#fbe3da"/><path d="M117.24,90.78c-1.41-2.42-4.22-2.82-6.58-1.72a27.84,27.84,0,0,0-14.78,17.35c-1.78,6,7.51,8.49,9.29,2.56a18.46,18.46,0,0,1,10.35-11.6C117.88,96.28,118.47,92.87,117.24,90.78Z" fill="#fbe3da"/><path d="M162.79,95.17a17.37,17.37,0,0,0-16.41,16.21c-.19,2.59,2.35,4.81,4.82,4.81a4.9,4.9,0,0,0,4.81-4.81,7.57,7.57,0,0,1,6.78-6.58C169,104.46,169,94.82,162.79,95.17Z" fill="#fbe3da"/><path d="M197.27,81.11a36.42,36.42,0,0,0-14.69,26.43c-.56,6.17,9.08,6.13,9.63,0a25.83,25.83,0,0,1,9.92-18.12C207,85.71,202.2,77.35,197.27,81.11Z" fill="#fbe3da"/><path d="M228.19,79.36c-9.57,2.17-15.38,12.24-13.13,21.62,1.44,6,10.73,3.48,9.29-2.56a8.26,8.26,0,0,1,6.4-9.77C236.79,87.28,234.23,78,228.19,79.36Z" fill="#fbe3da"/><path d="M243.58,102.11c-2.19-1.16-5.38-.68-6.59,1.72l-3.87,7.7c-1.12,2.25-.67,5.32,1.73,6.59,2.19,1.15,5.38.67,6.59-1.73q1.94-3.84,3.86-7.7C246.43,106.45,246,103.37,243.58,102.11Z" fill="#fbe3da"/><path d="M215.7,123.16a18.76,18.76,0,0,0-3.17,24c3.42,5.13,11.77.32,8.32-4.86A9.18,9.18,0,0,1,222.5,130C227.17,125.87,220.34,119.09,215.7,123.16Z" fill="#fbe3da"/><path d="M246.67,129.79a25.17,25.17,0,0,0-6.54,17.54c.16,6.18,9.79,6.2,9.63,0a15.14,15.14,0,0,1,3.72-10.73C257.57,132,250.79,125.14,246.67,129.79Z" fill="#fbe3da"/><path d="M191.25,120.19a25.25,25.25,0,0,0-11.54,20.72c-.15,6.19,9.48,6.19,9.63,0a15.17,15.17,0,0,1,6.77-12.41C201.25,125.09,196.43,116.75,191.25,120.19Z" fill="#fbe3da"/><path d="M167,138.43a13.48,13.48,0,0,1-.13-13.1c2.91-5.46-5.4-10.33-8.32-4.86a23.53,23.53,0,0,0,.13,22.82C161.71,148.71,170,143.86,167,138.43Z" fill="#fbe3da"/><path d="M132.9,136.14c-.62-2.27-3.5-4.35-5.92-3.36a17.47,17.47,0,0,0-11.3,15.83c-.2,6.2,9.43,6.19,9.63,0a7.57,7.57,0,0,1,4.23-6.55C131.94,141.08,133.65,138.86,132.9,136.14Z" fill="#fbe3da"/><path d="M162.92,152.15c-6.57,3.4-10.43,9.79-11.29,17-.3,2.58,2.44,4.81,4.82,4.81,2.86,0,4.5-2.22,4.81-4.81a11.66,11.66,0,0,1,6.52-8.69C173.29,157.62,168.42,149.31,162.92,152.15Z" fill="#fbe3da"/><path d="M195.71,155.47a4.91,4.91,0,0,0-6.81,0,27.63,27.63,0,0,0-7.63,11.12c-1,2.42,1,5.29,3.36,5.92,2.73.75,5-.93,5.92-3.36a18.06,18.06,0,0,1,5.16-6.87C197.69,160.58,197.45,157.21,195.71,155.47Z" fill="#fbe3da"/><path d="M146.16,71.16a33,33,0,0,0-13.58,21c-1.08,6.06,8.19,8.66,9.28,2.56A23.5,23.5,0,0,1,151,79.47C156,75.87,151.19,67.52,146.16,71.16Z" fill="#fbe3da"/><path d="M188.4,65.78c-6.15-2.3-13.17,4.73-10.88,10.88.88,2.35,3.3,4.21,5.92,3.36A5.16,5.16,0,0,0,187,75.27a4.83,4.83,0,0,0,1.38-9.49Z" fill="#fbe3da"/><path d="M170.49,0C161.73,0,153.56,6.4,152,15.13a5,5,0,0,0,3.37,5.92c2.33.64,5.45-.79,5.92-3.36a9.42,9.42,0,0,1,9.24-8.06C176.68,9.62,176.7,0,170.49,0Z" fill="#fbe3da"/><path d="M181.87,16c-2.46-1.44-5-.36-6.58,1.73A39.77,39.77,0,0,0,168,34.27c-1.17,6,8.11,8.65,9.28,2.56a33.64,33.64,0,0,1,6.35-14.2C185.17,20.55,183.93,17.24,181.87,16Z" fill="#fbe3da"/><path d="M202.79,11a26.28,26.28,0,0,0-11.13,27.13c1.16,6.08,10.44,3.51,9.28-2.56a16.21,16.21,0,0,1,6.71-16.25C212.73,15.86,207.92,7.51,202.79,11Z" fill="#fbe3da"/><path d="M217.49,51a4.88,4.88,0,0,0-5.93-3.36c-6.39,1.84-10.44,7.21-11.22,13.68-.31,2.58,2.44,4.81,4.81,4.81,2.87,0,4.5-2.22,4.82-4.81-.1.82.59-1.62.29-1a5.341,5.341,0,0,1,.93-1.53c.22-.25.47-.49.7-.73a2.682,2.682,0,0,0,.24-.24.319.319,0,0,0,.17-.09,8.43,8.43,0,0,1,.92-.53c.08,0,.86-.32.9-.33A4.9,4.9,0,0,0,217.49,51Z" fill="#fbe3da"/><path d="M235.79,47.66a29.15,29.15,0,0,0-13.25,22.65c-.46,6.18,9.17,6.15,9.63,0A18.85,18.85,0,0,1,240.65,56C245.81,52.59,241,44.24,235.79,47.66Z" fill="#fbe3da"/><path d="M226.22,10.47a31.1,31.1,0,0,0-7,26.57c1.14,6.08,10.42,3.5,9.29-2.56A20.69,20.69,0,0,1,233,17.28C237,12.58,230.24,5.74,226.22,10.47Z" fill="#fbe3da"/><path d="M263,9.33a23.1,23.1,0,0,0-15.51,15.89c-1.66,6,7.63,8.54,9.29,2.56a13.19,13.19,0,0,1,8.78-9.17C271.44,16.77,268.92,7.48,263,9.33Z" fill="#fbe3da"/><path d="M269.63,44.69c-1.42-2.41-4.22-2.82-6.59-1.72-7.3,3.4-11.68,10.49-12.5,18.35-.26,2.59,2.41,4.81,4.82,4.81,2.82,0,4.54-2.22,4.81-4.81a12.681,12.681,0,0,1,7.73-10C270.26,50.18,270.85,46.79,269.63,44.69Z" fill="#fbe3da"/><path d="M261.19,82.29c-2-2-4.75-1.6-6.81,0a17.52,17.52,0,0,0-6.5,15,4.94,4.94,0,0,0,4.82,4.81c2.44,0,5-2.2,4.81-4.81a8.76,8.76,0,0,1,3.68-8.15C263.25,87.5,262.87,84,261.19,82.29Z" fill="#fbe3da"/><path d="M99.78,130c-6.4,4.53-10.32,11.92-9.44,19.86.29,2.59,2,4.82,4.82,4.82,2.38,0,5.1-2.22,4.81-4.82-.49-4.43.9-8.88,4.67-11.54C109.66,134.74,104.85,126.38,99.78,130Z" fill="#fbe3da"/><path d="M56.27,124.6a31.77,31.77,0,0,0-3.91,26.74c1.77,5.92,11.07,3.4,9.29-2.56a22.29,22.29,0,0,1,2.94-19.32C68,124.28,59.68,119.45,56.27,124.6Z" fill="#fbe3da"/><path d="M18,129.37c-1.41-2.42-4.22-2.84-6.58-1.73C4.3,131,1,138.69,2.19,146.15c.4,2.57,3.62,4,5.92,3.36,2.75-.75,3.76-3.34,3.36-5.92-.52-3.37,1.91-6.3,4.77-7.64C18.59,134.85,19.19,131.47,18,129.37Z" fill="#fbe3da"/><path d="M34.4,123.42a4.91,4.91,0,0,0-5.93,3.37A31.19,31.19,0,0,0,27,138.34a4.92,4.92,0,0,0,4.81,4.81,4.86,4.86,0,0,0,4.82-4.81,23.22,23.22,0,0,1,1.11-9,4.88,4.88,0,0,0-3.34-5.92Z" fill="#fbe3da"/><path d="M26.77,154.57c-8,3.8-10.92,15.12-5.67,22.27,1.56,2.11,4.16,3.11,6.59,1.72,2.08-1.18,3.27-4.49,1.73-6.58a5.9,5.9,0,0,1,2.21-9.09C37.22,160.23,32.34,151.92,26.77,154.57Z" fill="#fbe3da"/><path d="M50.23,156.74a18.89,18.89,0,0,0-5,16.25c.36,2.58,3.66,4,5.93,3.36,2.78-.76,3.71-3.33,3.36-5.92A8.62,8.62,0,0,1,57,163.54C61.34,159.08,54.54,152.27,50.23,156.74Z" fill="#fbe3da"/><path d="M83.3,164.84c-9.18,3.37-15.63,12.41-14.58,22.38.64,6.1,10.28,6.16,9.63,0-.58-5.49,2.1-11.11,7.51-13.09C91.63,172,89.14,162.7,83.3,164.84Z" fill="#fbe3da"/><path d="M120.64,164a4.92,4.92,0,0,0-6.59-1.73,16,16,0,0,0-8.65,14.61c.17,6.18,9.8,6.21,9.63,0a6.54,6.54,0,0,1,3.88-6.29A4.879,4.879,0,0,0,120.64,164Z" fill="#fbe3da"/><path d="M146.22,178c-1.23-2.1-4.45-3.22-6.59-1.72a36.51,36.51,0,0,0-10.44,11c-3.22,5.31,5.1,10.15,8.32,4.86a25.16,25.16,0,0,1,7-7.58,4.94,4.94,0,0,0,1.71-6.56Z" fill="#fbe3da"/><path d="M76.73,123.22c-7.37,1.68-12.32,10.4-9.44,17.55,1,2.41,3.21,4.11,5.92,3.36,2.29-.63,4.34-3.5,3.36-5.92s0-5.08,2.72-5.71C85.33,131.13,82.78,121.84,76.73,123.22Z" fill="#fbe3da"/><path d="M142.43,135.55a13.84,13.84,0,0,0-6.35,15.7c1.71,5.94,11,3.42,9.28-2.56a4.06,4.06,0,0,1,1.93-4.83C152.66,140.77,147.81,132.45,142.43,135.55Z" fill="#fbe3da"/><path d="M12.14,188.88c-2-2-4.79-1.65-6.81,0A15,15,0,0,0,0,201.25a4.93,4.93,0,0,0,4.81,4.81c2.48,0,5-2.2,4.82-4.81a5.69,5.69,0,0,1,2.48-5.56C14.16,194,13.85,190.59,12.14,188.88Z" fill="#fbe3da"/><path d="M35.25,196.57a4.92,4.92,0,0,0-6.81,0,19.2,19.2,0,0,0-6.59,15c.13,6.19,9.76,6.21,9.63,0a9.93,9.93,0,0,1,3.77-8.14C37.23,201.7,37,198.31,35.25,196.57Z" fill="#fbe3da"/><path d="M55.32,187.51a36,36,0,0,0-8.82,18.88c-.35,2.6.63,5.14,3.37,5.93,2.23.64,5.57-.79,5.92-3.37a27.29,27.29,0,0,1,6.34-14.63C66.18,189.67,59.4,182.83,55.32,187.51Z" fill="#fbe3da"/><path d="M89.56,194.24a22.42,22.42,0,0,0-9.65,22.4c.37,2.59,3.63,4,5.92,3.36,2.77-.73,3.73-3.36,3.36-5.92a12.32,12.32,0,0,1,5.23-11.53C99.5,199.07,94.69,190.72,89.56,194.24Z" fill="#fbe3da"/><path d="M119.15,196.69c-9.58,1.88-14.62,14.24-9.21,22.32,3.42,5.13,11.77.32,8.31-4.86a5.34,5.34,0,0,1,3.46-8.17C127.79,204.79,125.22,195.51,119.15,196.69Z" fill="#fbe3da"/><path d="M156.56,189.47a30.56,30.56,0,0,0-12.84,23.33c-.37,6.19,9.26,6.17,9.63,0a20.14,20.14,0,0,1,8.07-15C166.38,194.17,161.58,185.81,156.56,189.47Z" fill="#fbe3da"/><path d="M182.53,188.9a31.37,31.37,0,0,0-9.21,22.62c.07,6.19,9.7,6.21,9.63,0a21.48,21.48,0,0,1,6.39-15.82C193.71,191.3,186.9,184.49,182.53,188.9Z" fill="#fbe3da"/><path d="M210.78,165.8a38,38,0,0,0-12.19,26.45c-.3,6.19,9.33,6.18,9.63,0a28.1,28.1,0,0,1,9.37-19.64C222.16,168.4,215.34,161.6,210.78,165.8Z" fill="#fbe3da"/><path d="M243.18,170.45c-.76-2.76-3.34-3.75-5.93-3.36-9.63,1.45-14.94,14.5-9.05,22.26,1.57,2.07,4.15,3.15,6.59,1.73,2-1.19,3.31-4.5,1.73-6.59a5,5,0,0,1,3.29-8.12C242.39,176,243.81,172.74,243.18,170.45Z" fill="#fbe3da"/><path d="M263.62,167.3c1.65-2,2-4.81,0-6.81-1.67-1.71-5.18-2-6.8,0a18.989,18.989,0,0,0-2.08,21.47c3,5.41,11.34.56,8.31-4.86a8.92,8.92,0,0,1,.57-9.8Z" fill="#fbe3da"/><path d="M256.11,199c-.63-2.32-3.48-4.31-5.92-3.36-7.23,2.79-10.86,11.38-6.79,18.3,3.14,5.34,11.47.5,8.32-4.86-.68-1.15-.28-3.65,1-4.16C255.18,204,256.85,201.66,256.11,199Z" fill="#fbe3da"/><path d="M220.07,204.21a4.89,4.89,0,0,0-6.81,0,16.63,16.63,0,0,0-4.94,16.26c1.39,6,10.68,3.48,9.28-2.56a6.94,6.94,0,0,1,2.47-6.9,4.86,4.86,0,0,0,0-6.8Z" fill="#fbe3da"/><path d="M132.53,108.34c-2-2-4.76-1.61-6.81,0a37.77,37.77,0,0,0-8.64,9.83A4.82,4.82,0,0,0,125.4,123a30.15,30.15,0,0,1,7.13-7.88C134.57,113.54,134.22,110,132.53,108.34Z" fill="#fbe3da"/><path d="M285.8,10.77a4.89,4.89,0,0,0-6.8,0,14.7,14.7,0,0,0-4.53,12.05c.29,2.58,2,4.81,4.81,4.81,2.37,0,5.11-2.21,4.81-4.81a5.4,5.4,0,0,1,.78-4.18,3.64,3.64,0,0,1,.93-1.06A4.87,4.87,0,0,0,285.8,10.77Z" fill="#fbe3da"/><path d="M311.74,12.63c-2-2-4.76-1.62-6.8,0a41.68,41.68,0,0,0-9.41,10.62c-3.3,5.27,5,10.11,8.32,4.86a34.3,34.3,0,0,1,7.89-8.67C313.78,17.82,313.43,14.32,311.74,12.63Z" fill="#fbe3da"/><path d="M335.31,5.33c-9,.39-16.21,9.85-13,18.63a4.93,4.93,0,0,0,5.92,3.36c2.36-.65,4.25-3.47,3.36-5.92s.62-6.31,3.74-6.45C341.49,14.68,341.52,5.05,335.31,5.33Z" fill="#fbe3da"/><path d="M359.9,10.72c-2-2-4.76-1.62-6.8,0a17.44,17.44,0,0,0-6.2,12.08c-.28,2.58,2.42,4.81,4.82,4.81,2.84,0,4.53-2.22,4.81-4.81,0,.52.3-1.13.36-1.35a4.17,4.17,0,0,1,.6-1.29,8.749,8.749,0,0,1,2.41-2.63C361.94,15.91,361.6,12.42,359.9,10.72Z" fill="#fbe3da"/><path d="M288.64,44.63a4.9,4.9,0,0,0-6.59,1.73L278.2,53.1a4.824,4.824,0,1,0,8.31,4.9l3.85-6.74a4.88,4.88,0,0,0-1.72-6.63Z" fill="#fbe3da"/><path d="M320.55,32.57C309.64,35,303.08,46.17,305.2,56.91c1.19,6.08,10.47,3.51,9.28-2.56-1.14-5.78,3.11-11.25,8.63-12.5C329.15,40.49,326.59,31.2,320.55,32.57Z" fill="#fbe3da"/><path d="M291.7,73.15c-.65-2.38-3.46-4.22-5.92-3.36a18,18,0,0,0-12.26,16.55c-.18,6.2,9.45,6.2,9.63,0a8,8,0,0,1,5.19-7.26,5,5,0,0,0,3.36-5.93Z" fill="#fbe3da"/><path d="M311.4,87.62a.87.87,0,0,0,.2-.16l-.08.05Z" fill="#fbe3da"/><path d="M315.85,81.09a4.88,4.88,0,0,0-5.92-3.36,13.43,13.43,0,0,0-9,9.28,4.813,4.813,0,1,0,9.28,2.56,6.761,6.761,0,0,1,.27-.74c-.1.22-.27.4,0,0h0a.818.818,0,0,0,0-.2.36.36,0,0,1,0,.19l.32-.49c-.08.08-.1.06.1-.16a.69.69,0,0,0,.11-.19.11.11,0,0,1,0,.08h0l.4-.37c-.16.11-.28.15.12-.11.06-.06.11-.1.1-.11s0,0,0,.06h0l.38-.27a4,4,0,0,1,.49-.16,4.9,4.9,0,0,0,3.35-6.01Z" fill="#fbe3da"/><path d="M310.77,88.29A.929.929,0,0,0,311,88a1.139,1.139,0,0,0-.11.11Z" fill="#fbe3da"/><path d="M310.44,88.83Z" fill="#fbe3da"/><path d="M278,103.46c-9.19,4.09-13.86,15.1-10.93,24.61,1.82,5.9,11.11,3.38,9.28-2.56-1.77-5.75,1.1-11.33,6.51-13.73C288.55,109.26,283.66,101,278,103.46Z" fill="#fbe3da"/><path d="M302.16,108.36a18.47,18.47,0,0,0-9.25,13.27c-.35,2.57.62,5.17,3.36,5.92,2.25.62,5.57-.77,5.92-3.36a9.6,9.6,0,0,1,4.83-7.52C312.42,113.62,307.57,105.3,302.16,108.36Z" fill="#fbe3da"/><path d="M281,137.21a17.45,17.45,0,0,0-7.54,18.9c1.46,6,10.75,3.47,9.28-2.56a7.51,7.51,0,0,1,3.12-8C291,142.15,286.18,133.81,281,137.21Z" fill="#fbe3da"/><path d="M304,149.59a4.9,4.9,0,0,0-6.58,1.73c-1,1.6-1.93,3.21-2.89,4.81a4.813,4.813,0,0,0,8.31,4.86l2.89-4.81A4.87,4.87,0,0,0,304,149.59Z" fill="#fbe3da"/><path d="M272.39,178.26A19.87,19.87,0,0,0,270,191.61c.38,2.58,3.63,4,5.92,3.36,2.76-.75,3.75-3.34,3.36-5.92a9.4,9.4,0,0,1,1.39-5.93C283.85,177.76,275.53,172.91,272.39,178.26Z" fill="#fbe3da"/><path d="M290.93,189.18c-7.33,6.59-8.9,16.9-5,25.71,2.51,5.66,10.81.76,8.32-4.86-2.21-5-.39-10.56,3.48-14C302.36,191.84,295.53,185,290.93,189.18Z" fill="#fbe3da"/><path d="M316.59,184.14a22.18,22.18,0,0,0-7.29,18.72c.28,2.58,2,4.81,4.81,4.81,2.39,0,5.1-2.21,4.82-4.81A13.26,13.26,0,0,1,323.39,191C328,186.81,321.2,180,316.59,184.14Z" fill="#fbe3da"/><path d="M321.38,156.33c-2.19-1.15-5.39-.68-6.59,1.73q-1.94,3.84-3.85,7.7c-1.13,2.25-.68,5.32,1.72,6.59,2.19,1.15,5.39.67,6.59-1.73,1.28-2.57,2.57-5.14,3.85-7.7C324.23,160.67,323.78,157.6,321.38,156.33Z" fill="#fbe3da"/><path d="M332.81,124.56c-1.43-2.45-4.19-2.78-6.58-1.73a17.07,17.07,0,0,0-9.8,16.54,4.93,4.93,0,0,0,4.81,4.81c2.45,0,5-2.21,4.81-4.81a7.87,7.87,0,0,1,5-8.22C333.47,130.1,334,126.62,332.81,124.56Z" fill="#fbe3da"/><path d="M336.75,89.63c-2-2-4.81-1.68-6.81,0A16,16,0,0,0,325,105.88c1.57,6,10.86,3.45,9.29-2.56a6.54,6.54,0,0,1,2.44-6.89C338.74,94.76,338.48,91.35,336.75,89.63Z" fill="#fbe3da"/><path d="M336.82,56c-2-2-4.77-1.62-6.81,0-5.29,4.18-6.21,11.44-3.62,17.33,1.05,2.38,4.53,2.93,6.59,1.73,2.46-1.44,2.78-4.2,1.73-6.59-.87-2,.3-4.24,2.11-5.66C338.86,61.2,338.5,57.7,336.82,56Z" fill="#fbe3da"/><path d="M352.82,35.43a4.91,4.91,0,0,0-5.92,3.36,21.9,21.9,0,0,0-.75,11.27c.44,2.56,3.59,4,5.92,3.36,2.71-.75,3.81-3.35,3.36-5.92a12.2,12.2,0,0,1,.75-6.15C357.06,38.9,355.2,36.08,352.82,35.43Z" fill="#fbe3da"/><path d="M375.33,14A19.24,19.24,0,0,0,366,35.71c1.56,6,10.85,3.45,9.28-2.56a9.5,9.5,0,0,1,4.9-10.85C385.65,19.37,380.8,11.05,375.33,14Z" fill="#fbe3da"/><path d="M389.9,41.41c-10.64,2-17.51,13.92-14.13,24.13,1.93,5.85,11.24,3.34,9.28-2.56a9.46,9.46,0,0,1,7.41-12.29C398.55,49.57,396,40.29,389.9,41.41Z" fill="#fbe3da"/><path d="M362.63,65.47c-1.65-1.68-5.21-2-6.81,0A23.62,23.62,0,0,0,351,85.66c1.32,6,10.61,3.49,9.29-2.56a13.16,13.16,0,0,1,2.3-10.82C364.24,70.22,364.6,67.49,362.63,65.47Z" fill="#fbe3da"/><path d="M372.27,84.76a19.72,19.72,0,0,0-5.9,20.17c1.67,6,11,3.43,9.29-2.56a10.16,10.16,0,0,1,3.41-10.8C383.77,87.5,376.93,80.72,372.27,84.76Z" fill="#fbe3da"/><path d="M352.13,104.29c-2.44-1.43-5.05-.38-6.59,1.72a21.61,21.61,0,0,0-3.25,18.19c1.55,6,10.84,3.45,9.28-2.56a12.36,12.36,0,0,1,2.28-10.77C355.39,108.77,354.21,105.5,352.13,104.29Z" fill="#fbe3da"/><path d="M368.56,124.34a4.86,4.86,0,0,0-6.81,0,27.141,27.141,0,0,0-6,10.79c-1.71,6,7.58,8.52,9.29,2.56a16.691,16.691,0,0,1,3.56-6.54A4.92,4.92,0,0,0,368.56,124.34Z" fill="#fbe3da"/><path d="M347.21,136c-1.2-2.06-4.48-3.28-6.58-1.72-5.82,4.29-8.82,11.86-6.08,18.85.95,2.42,3.22,4.1,5.92,3.36,2.31-.63,4.32-3.49,3.36-5.92-1.05-2.68-.88-6.11,1.66-8C347.57,141,348.62,138.38,347.21,136Z" fill="#fbe3da"/><path d="M353.13,160.23a28,28,0,0,0-10.59,11.22,4.93,4.93,0,0,0,1.73,6.59,4.85,4.85,0,0,0,6.58-1.73,18.52,18.52,0,0,1,7.14-7.76C363.31,165.37,358.47,157,353.13,160.23Z" fill="#fbe3da"/><path d="M346.12,198.39c-1.44-2.47-4.19-2.76-6.59-1.73-6.4,2.77-10.27,9.16-10.79,16-.19,2.6,2.36,4.82,4.82,4.82a4.9,4.9,0,0,0,4.81-4.82c.27-3.6,2.83-6.25,6-7.63C346.78,203.94,347.32,200.44,346.12,198.39Z" fill="#fbe3da"/><path d="M371.17,189.62c-1.45-2.47-4.19-2.75-6.59-1.72a18.75,18.75,0,0,0-10.92,18.8c.29,2.58,2,4.81,4.82,4.81,2.38,0,5.1-2.21,4.81-4.81a9.7,9.7,0,0,1,6.15-10.49C371.83,195.19,372.36,191.67,371.17,189.62Z" fill="#fbe3da"/><path d="M408.4,193.33c-1.72-1.72-5.13-2-6.81,0a30,30,0,0,0-7,14.66c-.41,2.56.66,5.18,3.36,5.92,2.29.63,5.51-.78,5.92-3.36a20.83,20.83,0,0,1,4.51-10.41,5,5,0,0,0,.02-6.81Z" fill="#fbe3da"/><path d="M372.57,159A28.62,28.62,0,0,0,369,173c0,6.2,9.67,6.21,9.63,0a18.51,18.51,0,0,1,2.25-9.12C383.85,158.44,375.54,153.58,372.57,159Z" fill="#fbe3da"/><path d="M400.76,153.67a15,15,0,0,0-10.68,18.07c1.52,6,10.81,3.46,9.28-2.56a5.24,5.24,0,0,1,4-6.23C409.34,161.49,406.79,152.2,400.76,153.67Z" fill="#fbe3da"/><path d="M386.63,123.21c-7.74,4-10.36,13.89-6.39,21.43,2.88,5.48,11.2.62,8.31-4.86-1.62-3.09,0-6.73,2.94-8.25C397,128.68,392.13,120.36,386.63,123.21Z" fill="#fbe3da"/><path d="M396.34,86.7a24,24,0,0,0-6.73,23c1.4,6,10.69,3.48,9.28-2.56a14.1,14.1,0,0,1,4.26-13.65C407.65,89.23,400.83,82.43,396.34,86.7Z" fill="#fbe3da"/><path d="M409.47,17c-1.22-2.09-4.46-3.25-6.59-1.73-5.78,4.14-9.38,10.82-8.61,18,.27,2.59,2,4.82,4.81,4.82,2.39,0,5.09-2.21,4.82-4.82-.4-3.7.69-7.47,3.84-9.73A4.865,4.865,0,0,0,409.47,17Z" fill="#fbe3da"/><path d="M405.11,57.17a21.94,21.94,0,0,0-11.19,17.61c-.24,2.59,2.38,4.81,4.81,4.81,2.8,0,4.58-2.21,4.82-4.81A12,12,0,0,1,410,65.49C415.41,62.5,410.55,54.18,405.11,57.17Z" fill="#fbe3da"/><path d="M379.64,199.73c-6.78,3.49-7.64,11.24-7.12,18.05.46,6.14,10.09,6.19,9.63,0-.24-3.17-1.06-8,2.35-9.74C390,205.2,385.14,196.89,379.64,199.73Z" fill="#fbe3da"/></g><g transform="translate(456.026 1928)" opacity="0.5"><path d="M27.75,27.24c-2-2-4.74-1.6-6.81,0A51.26,51.26,0,0,0,8.67,41.09C5.43,46.39,13.75,51.23,17,46A44.31,44.31,0,0,1,27.77,34.1C29.81,32.46,29.43,28.92,27.75,27.24Z" fill="#fbe3da"/><path d="M48.25,38.25c-.76-2.77-3.34-3.74-5.92-3.37A16.92,16.92,0,0,0,28.82,47.39c-1.53,6,7.76,8.57,9.28,2.56.84-3.32,3.32-5.28,6.79-5.78C47.46,43.8,48.88,40.53,48.25,38.25Z" fill="#fbe3da"/><path d="M54.33,2.16A25.54,25.54,0,0,0,36.31,23c-.79,6.1,8.59,8.31,9.39,2.17A16.13,16.13,0,0,1,57.28,11.33C63.22,9.59,60.29.42,54.33,2.16Z" fill="#fbe3da"/><path d="M81.87,11.61A30.87,30.87,0,0,0,60.7,33.1c-1.64,6,7.64,8.54,9.28,2.56A21,21,0,0,1,84.43,20.89C90.37,19.16,87.84,9.86,81.87,11.61Z" fill="#fbe3da"/><path d="M105.37,28.13c-1.19-2-4.51-3.31-6.59-1.73L87.15,35.28c-2.07,1.58-3.16,4.15-1.73,6.59,1.19,2,4.51,3.32,6.59,1.73l11.63-8.88C105.71,33.14,106.8,30.57,105.37,28.13Z" fill="#fbe3da"/><path d="M54.41,55.22c-2.1-1.92-4.7-1.68-6.81,0l-6.43,5.13c-2,1.58-1.77,5.19,0,6.81,2.1,1.93,4.7,1.68,6.81,0L54.41,62C56.38,60.46,56.18,56.85,54.41,55.22Z" fill="#fbe3da"/><path d="M75.61,50.71A46.67,46.67,0,0,0,59.79,66.59c-3.21,5.32,5.11,10.17,8.31,4.86A36.3,36.3,0,0,1,80.47,59C85.76,55.81,80.93,47.48,75.61,50.71Z" fill="#fbe3da"/><path d="M31.31,63a4.92,4.92,0,0,0-6.8,0l-9,7.7c-2,1.69-1.74,5.07,0,6.81a4.92,4.92,0,0,0,6.81,0l9-7.7A4.862,4.862,0,0,0,31.31,63Z" fill="#fbe3da"/><path d="M110.91,4.74C110.28,2.47,107.4.37,105,1.37A20.62,20.62,0,0,0,92.53,15.06c-1.64,6,7.65,8.54,9.28,2.56a10.63,10.63,0,0,1,5.73-7C109.94,9.66,111.66,7.47,110.91,4.74Z" fill="#fbe3da"/><path d="M139.18,10c-.65-2.37-3.46-4.25-5.92-3.36a24.31,24.31,0,0,0-14.95,14.9c-.88,2.44,1,5.27,3.37,5.92a4.91,4.91,0,0,0,5.92-3.36,13.92,13.92,0,0,1,8.22-8.18A4.93,4.93,0,0,0,139.18,10Z" fill="#fbe3da"/><path d="M140.51,29.66c-1.74-1.75-5.09-2-6.81,0q-4.48,5.13-9,10.27a4.93,4.93,0,0,0,0,6.81c1.74,1.74,5.09,2,6.81,0l9-10.27A4.93,4.93,0,0,0,140.51,29.66Z" fill="#fbe3da"/><path d="M150.93,31.92a57.449,57.449,0,0,0-5.63,16.55c-1,6.06,8.24,8.67,9.29,2.56a49.32,49.32,0,0,1,4.65-14.25C162.06,31.27,153.76,26.39,150.93,31.92Z" fill="#fbe3da"/><path d="M103.86,48.57A65.16,65.16,0,0,0,89.42,67.92c-2.71,5.55,5.59,10.43,8.31,4.86a57.8,57.8,0,0,1,12.94-17.4C115.24,51.17,108.42,44.37,103.86,48.57Z" fill="#fbe3da"/><path d="M128.11,58.49c-2.05-1.2-5.53-.66-6.59,1.73Q119,66,116.38,71.77c-1,2.37-.69,5.17,1.73,6.59,2,1.2,5.53.66,6.59-1.73q2.56-5.77,5.14-11.55C130.89,62.7,130.53,59.9,128.11,58.49Z" fill="#fbe3da"/><path d="M166.33,57.59l-6.65,12.72c-2.87,5.48,5.43,10.36,8.31,4.86l6.66-12.72C177.52,57,169.21,52.09,166.33,57.59Z" fill="#fbe3da"/><path d="M34.51,84.1A40.43,40.43,0,0,0,17.39,98.56c-2,3-4,6.71-2.26,10.34s5.64,4.24,9,2.76,3-5.09.87-7.18l.05-.09c.41-.64.82-1.28,1.27-1.89a31.79,31.79,0,0,1,3.87-4.25,32.83,32.83,0,0,1,9.16-5.84C45,89.9,40.13,81.6,34.51,84.1Z" fill="#fbe3da"/><path d="M55,90.34a26,26,0,0,0-12.28,17.2c-1.2,6.06,8.08,8.65,9.28,2.56a16.63,16.63,0,0,1,7.86-11.44C65.15,95.48,60.31,87.15,55,90.34Z" fill="#fbe3da"/><path d="M87,90c-10.54-.09-19.24,11.5-15.26,21.57,1,2.42,3.22,4.11,5.92,3.37,2.3-.64,4.32-3.5,3.36-5.93-1.66-4.19,1.19-9.43,6-9.38C93.23,99.64,93.24,90,87,90Z" fill="#fbe3da"/><path d="M117.24,90.78c-1.41-2.42-4.22-2.82-6.58-1.72a27.84,27.84,0,0,0-14.78,17.35c-1.78,6,7.51,8.49,9.29,2.56a18.46,18.46,0,0,1,10.35-11.6C117.88,96.28,118.47,92.87,117.24,90.78Z" fill="#fbe3da"/><path d="M162.79,95.17a17.37,17.37,0,0,0-16.41,16.21c-.19,2.59,2.35,4.81,4.82,4.81a4.9,4.9,0,0,0,4.81-4.81,7.57,7.57,0,0,1,6.78-6.58C169,104.46,169,94.82,162.79,95.17Z" fill="#fbe3da"/><path d="M197.27,81.11a36.42,36.42,0,0,0-14.69,26.43c-.56,6.17,9.08,6.13,9.63,0a25.83,25.83,0,0,1,9.92-18.12C207,85.71,202.2,77.35,197.27,81.11Z" fill="#fbe3da"/><path d="M228.19,79.36c-9.57,2.17-15.38,12.24-13.13,21.62,1.44,6,10.73,3.48,9.29-2.56a8.26,8.26,0,0,1,6.4-9.77C236.79,87.28,234.23,78,228.19,79.36Z" fill="#fbe3da"/><path d="M243.58,102.11c-2.19-1.16-5.38-.68-6.59,1.72l-3.87,7.7c-1.12,2.25-.67,5.32,1.73,6.59,2.19,1.15,5.38.67,6.59-1.73q1.94-3.84,3.86-7.7C246.43,106.45,246,103.37,243.58,102.11Z" fill="#fbe3da"/><path d="M215.7,123.16a18.76,18.76,0,0,0-3.17,24c3.42,5.13,11.77.32,8.32-4.86A9.18,9.18,0,0,1,222.5,130C227.17,125.87,220.34,119.09,215.7,123.16Z" fill="#fbe3da"/><path d="M246.67,129.79a25.17,25.17,0,0,0-6.54,17.54c.16,6.18,9.79,6.2,9.63,0a15.14,15.14,0,0,1,3.72-10.73C257.57,132,250.79,125.14,246.67,129.79Z" fill="#fbe3da"/><path d="M191.25,120.19a25.25,25.25,0,0,0-11.54,20.72c-.15,6.19,9.48,6.19,9.63,0a15.17,15.17,0,0,1,6.77-12.41C201.25,125.09,196.43,116.75,191.25,120.19Z" fill="#fbe3da"/><path d="M167,138.43a13.48,13.48,0,0,1-.13-13.1c2.91-5.46-5.4-10.33-8.32-4.86a23.53,23.53,0,0,0,.13,22.82C161.71,148.71,170,143.86,167,138.43Z" fill="#fbe3da"/><path d="M132.9,136.14c-.62-2.27-3.5-4.35-5.92-3.36a17.47,17.47,0,0,0-11.3,15.83c-.2,6.2,9.43,6.19,9.63,0a7.57,7.57,0,0,1,4.23-6.55C131.94,141.08,133.65,138.86,132.9,136.14Z" fill="#fbe3da"/><path d="M162.92,152.15c-6.57,3.4-10.43,9.79-11.29,17-.3,2.58,2.44,4.81,4.82,4.81,2.86,0,4.5-2.22,4.81-4.81a11.66,11.66,0,0,1,6.52-8.69C173.29,157.62,168.42,149.31,162.92,152.15Z" fill="#fbe3da"/><path d="M195.71,155.47a4.91,4.91,0,0,0-6.81,0,27.63,27.63,0,0,0-7.63,11.12c-1,2.42,1,5.29,3.36,5.92,2.73.75,5-.93,5.92-3.36a18.06,18.06,0,0,1,5.16-6.87C197.69,160.58,197.45,157.21,195.71,155.47Z" fill="#fbe3da"/><path d="M146.16,71.16a33,33,0,0,0-13.58,21c-1.08,6.06,8.19,8.66,9.28,2.56A23.5,23.5,0,0,1,151,79.47C156,75.87,151.19,67.52,146.16,71.16Z" fill="#fbe3da"/><path d="M188.4,65.78c-6.15-2.3-13.17,4.73-10.88,10.88.88,2.35,3.3,4.21,5.92,3.36A5.16,5.16,0,0,0,187,75.27a4.83,4.83,0,0,0,1.38-9.49Z" fill="#fbe3da"/><path d="M170.49,0C161.73,0,153.56,6.4,152,15.13a5,5,0,0,0,3.37,5.92c2.33.64,5.45-.79,5.92-3.36a9.42,9.42,0,0,1,9.24-8.06C176.68,9.62,176.7,0,170.49,0Z" fill="#fbe3da"/><path d="M181.87,16c-2.46-1.44-5-.36-6.58,1.73A39.77,39.77,0,0,0,168,34.27c-1.17,6,8.11,8.65,9.28,2.56a33.64,33.64,0,0,1,6.35-14.2C185.17,20.55,183.93,17.24,181.87,16Z" fill="#fbe3da"/><path d="M202.79,11a26.28,26.28,0,0,0-11.13,27.13c1.16,6.08,10.44,3.51,9.28-2.56a16.21,16.21,0,0,1,6.71-16.25C212.73,15.86,207.92,7.51,202.79,11Z" fill="#fbe3da"/><path d="M217.49,51a4.88,4.88,0,0,0-5.93-3.36c-6.39,1.84-10.44,7.21-11.22,13.68-.31,2.58,2.44,4.81,4.81,4.81,2.87,0,4.5-2.22,4.82-4.81-.1.82.59-1.62.29-1a5.341,5.341,0,0,1,.93-1.53c.22-.25.47-.49.7-.73a2.682,2.682,0,0,0,.24-.24.319.319,0,0,0,.17-.09,8.43,8.43,0,0,1,.92-.53c.08,0,.86-.32.9-.33A4.9,4.9,0,0,0,217.49,51Z" fill="#fbe3da"/><path d="M235.79,47.66a29.15,29.15,0,0,0-13.25,22.65c-.46,6.18,9.17,6.15,9.63,0A18.85,18.85,0,0,1,240.65,56C245.81,52.59,241,44.24,235.79,47.66Z" fill="#fbe3da"/><path d="M226.22,10.47a31.1,31.1,0,0,0-7,26.57c1.14,6.08,10.42,3.5,9.29-2.56A20.69,20.69,0,0,1,233,17.28C237,12.58,230.24,5.74,226.22,10.47Z" fill="#fbe3da"/><path d="M263,9.33a23.1,23.1,0,0,0-15.51,15.89c-1.66,6,7.63,8.54,9.29,2.56a13.19,13.19,0,0,1,8.78-9.17C271.44,16.77,268.92,7.48,263,9.33Z" fill="#fbe3da"/><path d="M269.63,44.69c-1.42-2.41-4.22-2.82-6.59-1.72-7.3,3.4-11.68,10.49-12.5,18.35-.26,2.59,2.41,4.81,4.82,4.81,2.82,0,4.54-2.22,4.81-4.81a12.681,12.681,0,0,1,7.73-10C270.26,50.18,270.85,46.79,269.63,44.69Z" fill="#fbe3da"/><path d="M261.19,82.29c-2-2-4.75-1.6-6.81,0a17.52,17.52,0,0,0-6.5,15,4.94,4.94,0,0,0,4.82,4.81c2.44,0,5-2.2,4.81-4.81a8.76,8.76,0,0,1,3.68-8.15C263.25,87.5,262.87,84,261.19,82.29Z" fill="#fbe3da"/><path d="M99.78,130c-6.4,4.53-10.32,11.92-9.44,19.86.29,2.59,2,4.82,4.82,4.82,2.38,0,5.1-2.22,4.81-4.82-.49-4.43.9-8.88,4.67-11.54C109.66,134.74,104.85,126.38,99.78,130Z" fill="#fbe3da"/><path d="M56.27,124.6a31.77,31.77,0,0,0-3.91,26.74c1.77,5.92,11.07,3.4,9.29-2.56a22.29,22.29,0,0,1,2.94-19.32C68,124.28,59.68,119.45,56.27,124.6Z" fill="#fbe3da"/><path d="M18,129.37c-1.41-2.42-4.22-2.84-6.58-1.73C4.3,131,1,138.69,2.19,146.15c.4,2.57,3.62,4,5.92,3.36,2.75-.75,3.76-3.34,3.36-5.92-.52-3.37,1.91-6.3,4.77-7.64C18.59,134.85,19.19,131.47,18,129.37Z" fill="#fbe3da"/><path d="M34.4,123.42a4.91,4.91,0,0,0-5.93,3.37A31.19,31.19,0,0,0,27,138.34a4.92,4.92,0,0,0,4.81,4.81,4.86,4.86,0,0,0,4.82-4.81,23.22,23.22,0,0,1,1.11-9,4.88,4.88,0,0,0-3.34-5.92Z" fill="#fbe3da"/><path d="M26.77,154.57c-8,3.8-10.92,15.12-5.67,22.27,1.56,2.11,4.16,3.11,6.59,1.72,2.08-1.18,3.27-4.49,1.73-6.58a5.9,5.9,0,0,1,2.21-9.09C37.22,160.23,32.34,151.92,26.77,154.57Z" fill="#fbe3da"/><path d="M50.23,156.74a18.89,18.89,0,0,0-5,16.25c.36,2.58,3.66,4,5.93,3.36,2.78-.76,3.71-3.33,3.36-5.92A8.62,8.62,0,0,1,57,163.54C61.34,159.08,54.54,152.27,50.23,156.74Z" fill="#fbe3da"/><path d="M83.3,164.84c-9.18,3.37-15.63,12.41-14.58,22.38.64,6.1,10.28,6.16,9.63,0-.58-5.49,2.1-11.11,7.51-13.09C91.63,172,89.14,162.7,83.3,164.84Z" fill="#fbe3da"/><path d="M120.64,164a4.92,4.92,0,0,0-6.59-1.73,16,16,0,0,0-8.65,14.61c.17,6.18,9.8,6.21,9.63,0a6.54,6.54,0,0,1,3.88-6.29A4.879,4.879,0,0,0,120.64,164Z" fill="#fbe3da"/><path d="M146.22,178c-1.23-2.1-4.45-3.22-6.59-1.72a36.51,36.51,0,0,0-10.44,11c-3.22,5.31,5.1,10.15,8.32,4.86a25.16,25.16,0,0,1,7-7.58,4.94,4.94,0,0,0,1.71-6.56Z" fill="#fbe3da"/><path d="M76.73,123.22c-7.37,1.68-12.32,10.4-9.44,17.55,1,2.41,3.21,4.11,5.92,3.36,2.29-.63,4.34-3.5,3.36-5.92s0-5.08,2.72-5.71C85.33,131.13,82.78,121.84,76.73,123.22Z" fill="#fbe3da"/><path d="M142.43,135.55a13.84,13.84,0,0,0-6.35,15.7c1.71,5.94,11,3.42,9.28-2.56a4.06,4.06,0,0,1,1.93-4.83C152.66,140.77,147.81,132.45,142.43,135.55Z" fill="#fbe3da"/><path d="M12.14,188.88c-2-2-4.79-1.65-6.81,0A15,15,0,0,0,0,201.25a4.93,4.93,0,0,0,4.81,4.81c2.48,0,5-2.2,4.82-4.81a5.69,5.69,0,0,1,2.48-5.56C14.16,194,13.85,190.59,12.14,188.88Z" fill="#fbe3da"/><path d="M35.25,196.57a4.92,4.92,0,0,0-6.81,0,19.2,19.2,0,0,0-6.59,15c.13,6.19,9.76,6.21,9.63,0a9.93,9.93,0,0,1,3.77-8.14C37.23,201.7,37,198.31,35.25,196.57Z" fill="#fbe3da"/><path d="M55.32,187.51a36,36,0,0,0-8.82,18.88c-.35,2.6.63,5.14,3.37,5.93,2.23.64,5.57-.79,5.92-3.37a27.29,27.29,0,0,1,6.34-14.63C66.18,189.67,59.4,182.83,55.32,187.51Z" fill="#fbe3da"/><path d="M89.56,194.24a22.42,22.42,0,0,0-9.65,22.4c.37,2.59,3.63,4,5.92,3.36,2.77-.73,3.73-3.36,3.36-5.92a12.32,12.32,0,0,1,5.23-11.53C99.5,199.07,94.69,190.72,89.56,194.24Z" fill="#fbe3da"/><path d="M119.15,196.69c-9.58,1.88-14.62,14.24-9.21,22.32,3.42,5.13,11.77.32,8.31-4.86a5.34,5.34,0,0,1,3.46-8.17C127.79,204.79,125.22,195.51,119.15,196.69Z" fill="#fbe3da"/><path d="M156.56,189.47a30.56,30.56,0,0,0-12.84,23.33c-.37,6.19,9.26,6.17,9.63,0a20.14,20.14,0,0,1,8.07-15C166.38,194.17,161.58,185.81,156.56,189.47Z" fill="#fbe3da"/><path d="M182.53,188.9a31.37,31.37,0,0,0-9.21,22.62c.07,6.19,9.7,6.21,9.63,0a21.48,21.48,0,0,1,6.39-15.82C193.71,191.3,186.9,184.49,182.53,188.9Z" fill="#fbe3da"/><path d="M210.78,165.8a38,38,0,0,0-12.19,26.45c-.3,6.19,9.33,6.18,9.63,0a28.1,28.1,0,0,1,9.37-19.64C222.16,168.4,215.34,161.6,210.78,165.8Z" fill="#fbe3da"/><path d="M243.18,170.45c-.76-2.76-3.34-3.75-5.93-3.36-9.63,1.45-14.94,14.5-9.05,22.26,1.57,2.07,4.15,3.15,6.59,1.73,2-1.19,3.31-4.5,1.73-6.59a5,5,0,0,1,3.29-8.12C242.39,176,243.81,172.74,243.18,170.45Z" fill="#fbe3da"/><path d="M263.62,167.3c1.65-2,2-4.81,0-6.81-1.67-1.71-5.18-2-6.8,0a18.989,18.989,0,0,0-2.08,21.47c3,5.41,11.34.56,8.31-4.86a8.92,8.92,0,0,1,.57-9.8Z" fill="#fbe3da"/><path d="M256.11,199c-.63-2.32-3.48-4.31-5.92-3.36-7.23,2.79-10.86,11.38-6.79,18.3,3.14,5.34,11.47.5,8.32-4.86-.68-1.15-.28-3.65,1-4.16C255.18,204,256.85,201.66,256.11,199Z" fill="#fbe3da"/><path d="M220.07,204.21a4.89,4.89,0,0,0-6.81,0,16.63,16.63,0,0,0-4.94,16.26c1.39,6,10.68,3.48,9.28-2.56a6.94,6.94,0,0,1,2.47-6.9,4.86,4.86,0,0,0,0-6.8Z" fill="#fbe3da"/><path d="M132.53,108.34c-2-2-4.76-1.61-6.81,0a37.77,37.77,0,0,0-8.64,9.83A4.82,4.82,0,0,0,125.4,123a30.15,30.15,0,0,1,7.13-7.88C134.57,113.54,134.22,110,132.53,108.34Z" fill="#fbe3da"/><path d="M285.8,10.77a4.89,4.89,0,0,0-6.8,0,14.7,14.7,0,0,0-4.53,12.05c.29,2.58,2,4.81,4.81,4.81,2.37,0,5.11-2.21,4.81-4.81a5.4,5.4,0,0,1,.78-4.18,3.64,3.64,0,0,1,.93-1.06A4.87,4.87,0,0,0,285.8,10.77Z" fill="#fbe3da"/><path d="M311.74,12.63c-2-2-4.76-1.62-6.8,0a41.68,41.68,0,0,0-9.41,10.62c-3.3,5.27,5,10.11,8.32,4.86a34.3,34.3,0,0,1,7.89-8.67C313.78,17.82,313.43,14.32,311.74,12.63Z" fill="#fbe3da"/><path d="M335.31,5.33c-9,.39-16.21,9.85-13,18.63a4.93,4.93,0,0,0,5.92,3.36c2.36-.65,4.25-3.47,3.36-5.92s.62-6.31,3.74-6.45C341.49,14.68,341.52,5.05,335.31,5.33Z" fill="#fbe3da"/><path d="M359.9,10.72c-2-2-4.76-1.62-6.8,0a17.44,17.44,0,0,0-6.2,12.08c-.28,2.58,2.42,4.81,4.82,4.81,2.84,0,4.53-2.22,4.81-4.81,0,.52.3-1.13.36-1.35a4.17,4.17,0,0,1,.6-1.29,8.749,8.749,0,0,1,2.41-2.63C361.94,15.91,361.6,12.42,359.9,10.72Z" fill="#fbe3da"/><path d="M288.64,44.63a4.9,4.9,0,0,0-6.59,1.73L278.2,53.1a4.824,4.824,0,1,0,8.31,4.9l3.85-6.74a4.88,4.88,0,0,0-1.72-6.63Z" fill="#fbe3da"/><path d="M320.55,32.57C309.64,35,303.08,46.17,305.2,56.91c1.19,6.08,10.47,3.51,9.28-2.56-1.14-5.78,3.11-11.25,8.63-12.5C329.15,40.49,326.59,31.2,320.55,32.57Z" fill="#fbe3da"/><path d="M291.7,73.15c-.65-2.38-3.46-4.22-5.92-3.36a18,18,0,0,0-12.26,16.55c-.18,6.2,9.45,6.2,9.63,0a8,8,0,0,1,5.19-7.26,5,5,0,0,0,3.36-5.93Z" fill="#fbe3da"/><path d="M311.4,87.62a.87.87,0,0,0,.2-.16l-.08.05Z" fill="#fbe3da"/><path d="M315.85,81.09a4.88,4.88,0,0,0-5.92-3.36,13.43,13.43,0,0,0-9,9.28,4.813,4.813,0,1,0,9.28,2.56,6.761,6.761,0,0,1,.27-.74c-.1.22-.27.4,0,0h0a.818.818,0,0,0,0-.2.36.36,0,0,1,0,.19l.32-.49c-.08.08-.1.06.1-.16a.69.69,0,0,0,.11-.19.11.11,0,0,1,0,.08h0l.4-.37c-.16.11-.28.15.12-.11.06-.06.11-.1.1-.11s0,0,0,.06h0l.38-.27a4,4,0,0,1,.49-.16,4.9,4.9,0,0,0,3.35-6.01Z" fill="#fbe3da"/><path d="M310.77,88.29A.929.929,0,0,0,311,88a1.139,1.139,0,0,0-.11.11Z" fill="#fbe3da"/><path d="M310.44,88.83Z" fill="#fbe3da"/><path d="M278,103.46c-9.19,4.09-13.86,15.1-10.93,24.61,1.82,5.9,11.11,3.38,9.28-2.56-1.77-5.75,1.1-11.33,6.51-13.73C288.55,109.26,283.66,101,278,103.46Z" fill="#fbe3da"/><path d="M302.16,108.36a18.47,18.47,0,0,0-9.25,13.27c-.35,2.57.62,5.17,3.36,5.92,2.25.62,5.57-.77,5.92-3.36a9.6,9.6,0,0,1,4.83-7.52C312.42,113.62,307.57,105.3,302.16,108.36Z" fill="#fbe3da"/><path d="M281,137.21a17.45,17.45,0,0,0-7.54,18.9c1.46,6,10.75,3.47,9.28-2.56a7.51,7.51,0,0,1,3.12-8C291,142.15,286.18,133.81,281,137.21Z" fill="#fbe3da"/><path d="M304,149.59a4.9,4.9,0,0,0-6.58,1.73c-1,1.6-1.93,3.21-2.89,4.81a4.813,4.813,0,0,0,8.31,4.86l2.89-4.81A4.87,4.87,0,0,0,304,149.59Z" fill="#fbe3da"/><path d="M272.39,178.26A19.87,19.87,0,0,0,270,191.61c.38,2.58,3.63,4,5.92,3.36,2.76-.75,3.75-3.34,3.36-5.92a9.4,9.4,0,0,1,1.39-5.93C283.85,177.76,275.53,172.91,272.39,178.26Z" fill="#fbe3da"/><path d="M290.93,189.18c-7.33,6.59-8.9,16.9-5,25.71,2.51,5.66,10.81.76,8.32-4.86-2.21-5-.39-10.56,3.48-14C302.36,191.84,295.53,185,290.93,189.18Z" fill="#fbe3da"/><path d="M316.59,184.14a22.18,22.18,0,0,0-7.29,18.72c.28,2.58,2,4.81,4.81,4.81,2.39,0,5.1-2.21,4.82-4.81A13.26,13.26,0,0,1,323.39,191C328,186.81,321.2,180,316.59,184.14Z" fill="#fbe3da"/><path d="M321.38,156.33c-2.19-1.15-5.39-.68-6.59,1.73q-1.94,3.84-3.85,7.7c-1.13,2.25-.68,5.32,1.72,6.59,2.19,1.15,5.39.67,6.59-1.73,1.28-2.57,2.57-5.14,3.85-7.7C324.23,160.67,323.78,157.6,321.38,156.33Z" fill="#fbe3da"/><path d="M332.81,124.56c-1.43-2.45-4.19-2.78-6.58-1.73a17.07,17.07,0,0,0-9.8,16.54,4.93,4.93,0,0,0,4.81,4.81c2.45,0,5-2.21,4.81-4.81a7.87,7.87,0,0,1,5-8.22C333.47,130.1,334,126.62,332.81,124.56Z" fill="#fbe3da"/><path d="M336.75,89.63c-2-2-4.81-1.68-6.81,0A16,16,0,0,0,325,105.88c1.57,6,10.86,3.45,9.29-2.56a6.54,6.54,0,0,1,2.44-6.89C338.74,94.76,338.48,91.35,336.75,89.63Z" fill="#fbe3da"/><path d="M336.82,56c-2-2-4.77-1.62-6.81,0-5.29,4.18-6.21,11.44-3.62,17.33,1.05,2.38,4.53,2.93,6.59,1.73,2.46-1.44,2.78-4.2,1.73-6.59-.87-2,.3-4.24,2.11-5.66C338.86,61.2,338.5,57.7,336.82,56Z" fill="#fbe3da"/><path d="M352.82,35.43a4.91,4.91,0,0,0-5.92,3.36,21.9,21.9,0,0,0-.75,11.27c.44,2.56,3.59,4,5.92,3.36,2.71-.75,3.81-3.35,3.36-5.92a12.2,12.2,0,0,1,.75-6.15C357.06,38.9,355.2,36.08,352.82,35.43Z" fill="#fbe3da"/><path d="M375.33,14A19.24,19.24,0,0,0,366,35.71c1.56,6,10.85,3.45,9.28-2.56a9.5,9.5,0,0,1,4.9-10.85C385.65,19.37,380.8,11.05,375.33,14Z" fill="#fbe3da"/><path d="M389.9,41.41c-10.64,2-17.51,13.92-14.13,24.13,1.93,5.85,11.24,3.34,9.28-2.56a9.46,9.46,0,0,1,7.41-12.29C398.55,49.57,396,40.29,389.9,41.41Z" fill="#fbe3da"/><path d="M362.63,65.47c-1.65-1.68-5.21-2-6.81,0A23.62,23.62,0,0,0,351,85.66c1.32,6,10.61,3.49,9.29-2.56a13.16,13.16,0,0,1,2.3-10.82C364.24,70.22,364.6,67.49,362.63,65.47Z" fill="#fbe3da"/><path d="M372.27,84.76a19.72,19.72,0,0,0-5.9,20.17c1.67,6,11,3.43,9.29-2.56a10.16,10.16,0,0,1,3.41-10.8C383.77,87.5,376.93,80.72,372.27,84.76Z" fill="#fbe3da"/><path d="M352.13,104.29c-2.44-1.43-5.05-.38-6.59,1.72a21.61,21.61,0,0,0-3.25,18.19c1.55,6,10.84,3.45,9.28-2.56a12.36,12.36,0,0,1,2.28-10.77C355.39,108.77,354.21,105.5,352.13,104.29Z" fill="#fbe3da"/><path d="M368.56,124.34a4.86,4.86,0,0,0-6.81,0,27.141,27.141,0,0,0-6,10.79c-1.71,6,7.58,8.52,9.29,2.56a16.691,16.691,0,0,1,3.56-6.54A4.92,4.92,0,0,0,368.56,124.34Z" fill="#fbe3da"/><path d="M347.21,136c-1.2-2.06-4.48-3.28-6.58-1.72-5.82,4.29-8.82,11.86-6.08,18.85.95,2.42,3.22,4.1,5.92,3.36,2.31-.63,4.32-3.49,3.36-5.92-1.05-2.68-.88-6.11,1.66-8C347.57,141,348.62,138.38,347.21,136Z" fill="#fbe3da"/><path d="M353.13,160.23a28,28,0,0,0-10.59,11.22,4.93,4.93,0,0,0,1.73,6.59,4.85,4.85,0,0,0,6.58-1.73,18.52,18.52,0,0,1,7.14-7.76C363.31,165.37,358.47,157,353.13,160.23Z" fill="#fbe3da"/><path d="M346.12,198.39c-1.44-2.47-4.19-2.76-6.59-1.73-6.4,2.77-10.27,9.16-10.79,16-.19,2.6,2.36,4.82,4.82,4.82a4.9,4.9,0,0,0,4.81-4.82c.27-3.6,2.83-6.25,6-7.63C346.78,203.94,347.32,200.44,346.12,198.39Z" fill="#fbe3da"/><path d="M371.17,189.62c-1.45-2.47-4.19-2.75-6.59-1.72a18.75,18.75,0,0,0-10.92,18.8c.29,2.58,2,4.81,4.82,4.81,2.38,0,5.1-2.21,4.81-4.81a9.7,9.7,0,0,1,6.15-10.49C371.83,195.19,372.36,191.67,371.17,189.62Z" fill="#fbe3da"/><path d="M408.4,193.33c-1.72-1.72-5.13-2-6.81,0a30,30,0,0,0-7,14.66c-.41,2.56.66,5.18,3.36,5.92,2.29.63,5.51-.78,5.92-3.36a20.83,20.83,0,0,1,4.51-10.41,5,5,0,0,0,.02-6.81Z" fill="#fbe3da"/><path d="M372.57,159A28.62,28.62,0,0,0,369,173c0,6.2,9.67,6.21,9.63,0a18.51,18.51,0,0,1,2.25-9.12C383.85,158.44,375.54,153.58,372.57,159Z" fill="#fbe3da"/><path d="M400.76,153.67a15,15,0,0,0-10.68,18.07c1.52,6,10.81,3.46,9.28-2.56a5.24,5.24,0,0,1,4-6.23C409.34,161.49,406.79,152.2,400.76,153.67Z" fill="#fbe3da"/><path d="M386.63,123.21c-7.74,4-10.36,13.89-6.39,21.43,2.88,5.48,11.2.62,8.31-4.86-1.62-3.09,0-6.73,2.94-8.25C397,128.68,392.13,120.36,386.63,123.21Z" fill="#fbe3da"/><path d="M396.34,86.7a24,24,0,0,0-6.73,23c1.4,6,10.69,3.48,9.28-2.56a14.1,14.1,0,0,1,4.26-13.65C407.65,89.23,400.83,82.43,396.34,86.7Z" fill="#fbe3da"/><path d="M409.47,17c-1.22-2.09-4.46-3.25-6.59-1.73-5.78,4.14-9.38,10.82-8.61,18,.27,2.59,2,4.82,4.81,4.82,2.39,0,5.09-2.21,4.82-4.82-.4-3.7.69-7.47,3.84-9.73A4.865,4.865,0,0,0,409.47,17Z" fill="#fbe3da"/><path d="M405.11,57.17a21.94,21.94,0,0,0-11.19,17.61c-.24,2.59,2.38,4.81,4.81,4.81,2.8,0,4.58-2.21,4.82-4.81A12,12,0,0,1,410,65.49C415.41,62.5,410.55,54.18,405.11,57.17Z" fill="#fbe3da"/><path d="M379.64,199.73c-6.78,3.49-7.64,11.24-7.12,18.05.46,6.14,10.09,6.19,9.63,0-.24-3.17-1.06-8,2.35-9.74C390,205.2,385.14,196.89,379.64,199.73Z" fill="#fbe3da"/></g><g transform="translate(0.026 1919)" opacity="0.5"><g transform="translate(-0.026)"><path d="M27.75,27.24c-2-2-4.74-1.6-6.81,0A51.26,51.26,0,0,0,8.67,41.09C5.43,46.39,13.75,51.23,17,46A44.31,44.31,0,0,1,27.77,34.1C29.81,32.46,29.43,28.92,27.75,27.24Z" transform="translate(0.026)" fill="#fbe3da"/><path d="M48.25,38.25c-.76-2.77-3.34-3.74-5.92-3.37A16.92,16.92,0,0,0,28.82,47.39c-1.53,6,7.76,8.57,9.28,2.56.84-3.32,3.32-5.28,6.79-5.78C47.46,43.8,48.88,40.53,48.25,38.25Z" transform="translate(0.026)" fill="#fbe3da"/><path d="M54.33,2.16A25.54,25.54,0,0,0,36.31,23c-.79,6.1,8.59,8.31,9.39,2.17A16.13,16.13,0,0,1,57.28,11.33C63.22,9.59,60.29.42,54.33,2.16Z" transform="translate(0.026)" fill="#fbe3da"/><path d="M81.87,11.61A30.87,30.87,0,0,0,60.7,33.1c-1.64,6,7.64,8.54,9.28,2.56A21,21,0,0,1,84.43,20.89C90.37,19.16,87.84,9.86,81.87,11.61Z" transform="translate(0.026)" fill="#fbe3da"/><path d="M105.37,28.13c-1.19-2-4.51-3.31-6.59-1.73L87.15,35.28c-2.07,1.58-3.16,4.15-1.73,6.59,1.19,2,4.51,3.32,6.59,1.73l11.63-8.88C105.71,33.14,106.8,30.57,105.37,28.13Z" transform="translate(10.633)" fill="#fbe3da"/><path d="M54.41,55.22c-2.1-1.92-4.7-1.68-6.81,0l-6.43,5.13c-2,1.58-1.77,5.19,0,6.81,2.1,1.93,4.7,1.68,6.81,0L54.41,62C56.38,60.46,56.18,56.85,54.41,55.22Z" transform="translate(0.026)" fill="#fbe3da"/><path d="M75.61,50.71A46.67,46.67,0,0,0,59.79,66.59c-3.21,5.32,5.11,10.17,8.31,4.86A36.3,36.3,0,0,1,80.47,59C85.76,55.81,80.93,47.48,75.61,50.71Z" transform="translate(0.026)" fill="#fbe3da"/><path d="M31.31,63a4.92,4.92,0,0,0-6.8,0l-9,7.7c-2,1.69-1.74,5.07,0,6.81a4.92,4.92,0,0,0,6.81,0l9-7.7A4.862,4.862,0,0,0,31.31,63Z" transform="translate(0.026)" fill="#fbe3da"/><path d="M110.91,4.74C110.28,2.47,107.4.37,105,1.37A20.62,20.62,0,0,0,92.53,15.06c-1.64,6,7.65,8.54,9.28,2.56a10.63,10.63,0,0,1,5.73-7C109.94,9.66,111.66,7.47,110.91,4.74Z" transform="translate(11.506)" fill="#fbe3da"/><path d="M139.18,10c-.65-2.37-3.46-4.25-5.92-3.36a24.31,24.31,0,0,0-14.95,14.9c-.88,2.44,1,5.27,3.37,5.92a4.91,4.91,0,0,0,5.92-3.36,13.92,13.92,0,0,1,8.22-8.18A4.93,4.93,0,0,0,139.18,10Z" transform="translate(14.8)" fill="#fbe3da"/><path d="M140.51,29.66c-1.74-1.75-5.09-2-6.81,0q-4.48,5.13-9,10.27a4.93,4.93,0,0,0,0,6.81c1.74,1.74,5.09,2,6.81,0l9-10.27A4.93,4.93,0,0,0,140.51,29.66Z" transform="translate(15.35)" fill="#fbe3da"/><path d="M150.93,31.92a57.449,57.449,0,0,0-5.63,16.55c-1,6.06,8.24,8.67,9.29,2.56a49.32,49.32,0,0,1,4.65-14.25C162.06,31.27,153.76,26.39,150.93,31.92Z" transform="translate(17.89)" fill="#fbe3da"/><path d="M103.86,48.57A65.16,65.16,0,0,0,89.42,67.92c-2.71,5.55,5.59,10.43,8.31,4.86a57.8,57.8,0,0,1,12.94-17.4C115.24,51.17,108.42,44.37,103.86,48.57Z" transform="translate(11.206)" fill="#fbe3da"/><path d="M128.11,58.49c-2.05-1.2-5.53-.66-6.59,1.73Q119,66,116.38,71.77c-1,2.37-.69,5.17,1.73,6.59,2,1.2,5.53.66,6.59-1.73q2.56-5.77,5.14-11.55C130.89,62.7,130.53,59.9,128.11,58.49Z" transform="translate(14.275)" fill="#fbe3da"/><path d="M166.33,57.59l-6.65,12.72c-2.87,5.48,5.43,10.36,8.31,4.86l6.66-12.72C177.52,57,169.21,52.09,166.33,57.59Z" transform="translate(19.672)" fill="#fbe3da"/><path d="M34.51,84.1A40.43,40.43,0,0,0,17.39,98.56c-2,3-4,6.71-2.26,10.34s5.64,4.24,9,2.76,3-5.09.87-7.18l.05-.09c.41-.64.82-1.28,1.27-1.89a31.79,31.79,0,0,1,3.87-4.25,32.83,32.83,0,0,1,9.16-5.84C45,89.9,40.13,81.6,34.51,84.1Z" transform="translate(0.026)" fill="#fbe3da"/><path d="M55,90.34a26,26,0,0,0-12.28,17.2c-1.2,6.06,8.08,8.65,9.28,2.56a16.63,16.63,0,0,1,7.86-11.44C65.15,95.48,60.31,87.15,55,90.34Z" transform="translate(0.026)" fill="#fbe3da"/><path d="M87,90c-10.54-.09-19.24,11.5-15.26,21.57,1,2.42,3.22,4.11,5.92,3.37,2.3-.64,4.32-3.5,3.36-5.93-1.66-4.19,1.19-9.43,6-9.38C93.23,99.64,93.24,90,87,90Z" transform="translate(8.872)" fill="#fbe3da"/><path d="M117.24,90.78c-1.41-2.42-4.22-2.82-6.58-1.72a27.84,27.84,0,0,0-14.78,17.35c-1.78,6,7.51,8.49,9.29,2.56a18.46,18.46,0,0,1,10.35-11.6C117.88,96.28,118.47,92.87,117.24,90.78Z" transform="translate(12.023)" fill="#fbe3da"/><path d="M162.79,95.17a17.37,17.37,0,0,0-16.41,16.21c-.19,2.59,2.35,4.81,4.82,4.81a4.9,4.9,0,0,0,4.81-4.81,7.57,7.57,0,0,1,6.78-6.58C169,104.46,169,94.82,162.79,95.17Z" transform="translate(18.33)" fill="#fbe3da"/><path d="M197.27,81.11a36.42,36.42,0,0,0-14.69,26.43c-.56,6.17,9.08,6.13,9.63,0a25.83,25.83,0,0,1,9.92-18.12C207,85.71,202.2,77.35,197.27,81.11Z" transform="translate(22.885)" fill="#fbe3da"/><path d="M228.19,79.36c-9.57,2.17-15.38,12.24-13.13,21.62,1.44,6,10.73,3.48,9.29-2.56a8.26,8.26,0,0,1,6.4-9.77C236.79,87.28,234.23,78,228.19,79.36Z" transform="translate(26.758)" fill="#fbe3da"/><path d="M243.58,102.11c-2.19-1.16-5.38-.68-6.59,1.72l-3.87,7.7c-1.12,2.25-.67,5.32,1.73,6.59,2.19,1.15,5.38.67,6.59-1.73q1.94-3.84,3.86-7.7C246.43,106.45,246,103.37,243.58,102.11Z" transform="translate(28.54)" fill="#fbe3da"/><path d="M215.7,123.16a18.76,18.76,0,0,0-3.17,24c3.42,5.13,11.77.32,8.32-4.86A9.18,9.18,0,0,1,222.5,130C227.17,125.87,220.34,119.09,215.7,123.16Z" transform="translate(25.797)" fill="#fbe3da"/><path d="M246.67,129.79a25.17,25.17,0,0,0-6.54,17.54c.16,6.18,9.79,6.2,9.63,0a15.14,15.14,0,0,1,3.72-10.73C257.57,132,250.79,125.14,246.67,129.79Z" transform="translate(29.564)" fill="#fbe3da"/><path d="M191.25,120.19a25.25,25.25,0,0,0-11.54,20.72c-.15,6.19,9.48,6.19,9.63,0a15.17,15.17,0,0,1,6.77-12.41C201.25,125.09,196.43,116.75,191.25,120.19Z" transform="translate(22.356)" fill="#fbe3da"/><path d="M167,138.43a13.48,13.48,0,0,1-.13-13.1c2.91-5.46-5.4-10.33-8.32-4.86a23.53,23.53,0,0,0,.13,22.82C161.71,148.71,170,143.86,167,138.43Z" transform="translate(19.049)" fill="#fbe3da"/><path d="M132.9,136.14c-.62-2.27-3.5-4.35-5.92-3.36a17.47,17.47,0,0,0-11.3,15.83c-.2,6.2,9.43,6.19,9.63,0a7.57,7.57,0,0,1,4.23-6.55C131.94,141.08,133.65,138.86,132.9,136.14Z" transform="translate(14.357)" fill="#fbe3da"/><path d="M162.92,152.15c-6.57,3.4-10.43,9.79-11.29,17-.3,2.58,2.44,4.81,4.82,4.81,2.86,0,4.5-2.22,4.81-4.81a11.66,11.66,0,0,1,6.52-8.69C173.29,157.62,168.42,149.31,162.92,152.15Z" transform="translate(18.865)" fill="#fbe3da"/><path d="M195.71,155.47a4.91,4.91,0,0,0-6.81,0,27.63,27.63,0,0,0-7.63,11.12c-1,2.42,1,5.29,3.36,5.92,2.73.75,5-.93,5.92-3.36a18.06,18.06,0,0,1,5.16-6.87C197.69,160.58,197.45,157.21,195.71,155.47Z" transform="translate(22.376)" fill="#fbe3da"/><path d="M146.16,71.16a33,33,0,0,0-13.58,21c-1.08,6.06,8.19,8.66,9.28,2.56A23.5,23.5,0,0,1,151,79.47C156,75.87,151.19,67.52,146.16,71.16Z" transform="translate(16.575)" fill="#fbe3da"/><path d="M188.4,65.78c-6.15-2.3-13.17,4.73-10.88,10.88.88,2.35,3.3,4.21,5.92,3.36A5.16,5.16,0,0,0,187,75.27a4.83,4.83,0,0,0,1.38-9.49Z" transform="translate(21.823)" fill="#fbe3da"/><path d="M170.49,0C161.73,0,153.56,6.4,152,15.13a5,5,0,0,0,3.37,5.92c2.33.64,5.45-.79,5.92-3.36a9.42,9.42,0,0,1,9.24-8.06C176.68,9.62,176.7,0,170.49,0Z" transform="translate(19.124)" fill="#fbe3da"/><path d="M181.87,16c-2.46-1.44-5-.36-6.58,1.73A39.77,39.77,0,0,0,168,34.27c-1.17,6,8.11,8.65,9.28,2.56a33.64,33.64,0,0,1,6.35-14.2C185.17,20.55,183.93,17.24,181.87,16Z" transform="translate(20.774)" fill="#fbe3da"/><path d="M202.79,11a26.28,26.28,0,0,0-11.13,27.13c1.16,6.08,10.44,3.51,9.28-2.56a16.21,16.21,0,0,1,6.71-16.25C212.73,15.86,207.92,7.51,202.79,11Z" transform="translate(23.78)" fill="#fbe3da"/><path d="M217.49,51a4.88,4.88,0,0,0-5.93-3.36c-6.39,1.84-10.44,7.21-11.22,13.68-.31,2.58,2.44,4.81,4.81,4.81,2.87,0,4.5-2.22,4.82-4.81-.1.82.59-1.62.29-1a5.341,5.341,0,0,1,.93-1.53c.22-.25.47-.49.7-.73a2.682,2.682,0,0,0,.24-.24.319.319,0,0,0,.17-.09,8.43,8.43,0,0,1,.92-.53c.08,0,.86-.32.9-.33A4.9,4.9,0,0,0,217.49,51Z" transform="translate(24.836)" fill="#fbe3da"/><path d="M235.79,47.66a29.15,29.15,0,0,0-13.25,22.65c-.46,6.18,9.17,6.15,9.63,0A18.85,18.85,0,0,1,240.65,56C245.81,52.59,241,44.24,235.79,47.66Z" transform="translate(27.798)" fill="#fbe3da"/><path d="M226.22,10.47a31.1,31.1,0,0,0-7,26.57c1.14,6.08,10.42,3.5,9.29-2.56A20.69,20.69,0,0,1,233,17.28C237,12.58,230.24,5.74,226.22,10.47Z" transform="translate(26.984)" fill="#fbe3da"/><path d="M263,9.33a23.1,23.1,0,0,0-15.51,15.89c-1.66,6,7.63,8.54,9.29,2.56a13.19,13.19,0,0,1,8.78-9.17C271.44,16.77,268.92,7.48,263,9.33Z" transform="translate(30.99)" fill="#fbe3da"/><path d="M269.63,44.69c-1.42-2.41-4.22-2.82-6.59-1.72-7.3,3.4-11.68,10.49-12.5,18.35-.26,2.59,2.41,4.81,4.82,4.81,2.82,0,4.54-2.22,4.81-4.81a12.681,12.681,0,0,1,7.73-10C270.26,50.18,270.85,46.79,269.63,44.69Z" transform="translate(31.244)" fill="#fbe3da"/><path d="M261.19,82.29c-2-2-4.75-1.6-6.81,0a17.52,17.52,0,0,0-6.5,15,4.94,4.94,0,0,0,4.82,4.81c2.44,0,5-2.2,4.81-4.81a8.76,8.76,0,0,1,3.68-8.15C263.25,87.5,262.87,84,261.19,82.29Z" transform="translate(30.523)" fill="#fbe3da"/><path d="M99.78,130c-6.4,4.53-10.32,11.92-9.44,19.86.29,2.59,2,4.82,4.82,4.82,2.38,0,5.1-2.22,4.81-4.82-.49-4.43.9-8.88,4.67-11.54C109.66,134.74,104.85,126.38,99.78,130Z" transform="translate(11.18)" fill="#fbe3da"/><path d="M56.27,124.6a31.77,31.77,0,0,0-3.91,26.74c1.77,5.92,11.07,3.4,9.29-2.56a22.29,22.29,0,0,1,2.94-19.32C68,124.28,59.68,119.45,56.27,124.6Z" transform="translate(0.026)" fill="#fbe3da"/><path d="M18,129.37c-1.41-2.42-4.22-2.84-6.58-1.73C4.3,131,1,138.69,2.19,146.15c.4,2.57,3.62,4,5.92,3.36,2.75-.75,3.76-3.34,3.36-5.92-.52-3.37,1.91-6.3,4.77-7.64C18.59,134.85,19.19,131.47,18,129.37Z" transform="translate(0.026)" fill="#fbe3da"/><path d="M34.4,123.42a4.91,4.91,0,0,0-5.93,3.37A31.19,31.19,0,0,0,27,138.34a4.92,4.92,0,0,0,4.81,4.81,4.86,4.86,0,0,0,4.82-4.81,23.22,23.22,0,0,1,1.11-9,4.88,4.88,0,0,0-3.34-5.92Z" transform="translate(0.026)" fill="#fbe3da"/><path d="M26.77,154.57c-8,3.8-10.92,15.12-5.67,22.27,1.56,2.11,4.16,3.11,6.59,1.72,2.08-1.18,3.27-4.49,1.73-6.58a5.9,5.9,0,0,1,2.21-9.09C37.22,160.23,32.34,151.92,26.77,154.57Z" transform="translate(0.026)" fill="#fbe3da"/><path d="M50.23,156.74a18.89,18.89,0,0,0-5,16.25c.36,2.58,3.66,4,5.93,3.36,2.78-.76,3.71-3.33,3.36-5.92A8.62,8.62,0,0,1,57,163.54C61.34,159.08,54.54,152.27,50.23,156.74Z" transform="translate(0.026)" fill="#fbe3da"/><path d="M83.3,164.84c-9.18,3.37-15.63,12.41-14.58,22.38.64,6.1,10.28,6.16,9.63,0-.58-5.49,2.1-11.11,7.51-13.09C91.63,172,89.14,162.7,83.3,164.84Z" transform="translate(8.595)" fill="#fbe3da"/><path d="M120.64,164a4.92,4.92,0,0,0-6.59-1.73,16,16,0,0,0-8.65,14.61c.17,6.18,9.8,6.21,9.63,0a6.54,6.54,0,0,1,3.88-6.29A4.879,4.879,0,0,0,120.64,164Z" transform="translate(13.033)" fill="#fbe3da"/><path d="M146.22,178c-1.23-2.1-4.45-3.22-6.59-1.72a36.51,36.51,0,0,0-10.44,11c-3.22,5.31,5.1,10.15,8.32,4.86a25.16,25.16,0,0,1,7-7.58,4.94,4.94,0,0,0,1.71-6.56Z" transform="translate(15.98)" fill="#fbe3da"/><path d="M76.73,123.22c-7.37,1.68-12.32,10.4-9.44,17.55,1,2.41,3.21,4.11,5.92,3.36,2.29-.63,4.34-3.5,3.36-5.92s0-5.08,2.72-5.71C85.33,131.13,82.78,121.84,76.73,123.22Z" transform="translate(3.215)" fill="#fbe3da"/><path d="M142.43,135.55a13.84,13.84,0,0,0-6.35,15.7c1.71,5.94,11,3.42,9.28-2.56a4.06,4.06,0,0,1,1.93-4.83C152.66,140.77,147.81,132.45,142.43,135.55Z" transform="translate(16.68)" fill="#fbe3da"/><path d="M12.14,188.88c-2-2-4.79-1.65-6.81,0A15,15,0,0,0,0,201.25a4.93,4.93,0,0,0,4.81,4.81c2.48,0,5-2.2,4.82-4.81a5.69,5.69,0,0,1,2.48-5.56C14.16,194,13.85,190.59,12.14,188.88Z" transform="translate(0.026)" fill="#fbe3da"/><path d="M35.25,196.57a4.92,4.92,0,0,0-6.81,0,19.2,19.2,0,0,0-6.59,15c.13,6.19,9.76,6.21,9.63,0a9.93,9.93,0,0,1,3.77-8.14C37.23,201.7,37,198.31,35.25,196.57Z" transform="translate(0.026)" fill="#fbe3da"/><path d="M55.32,187.51a36,36,0,0,0-8.82,18.88c-.35,2.6.63,5.14,3.37,5.93,2.23.64,5.57-.79,5.92-3.37a27.29,27.29,0,0,1,6.34-14.63C66.18,189.67,59.4,182.83,55.32,187.51Z" transform="translate(0.026)" fill="#fbe3da"/><path d="M89.56,194.24a22.42,22.42,0,0,0-9.65,22.4c.37,2.59,3.63,4,5.92,3.36,2.77-.73,3.73-3.36,3.36-5.92a12.32,12.32,0,0,1,5.23-11.53C99.5,199.07,94.69,190.72,89.56,194.24Z" transform="translate(9.877)" fill="#fbe3da"/><path d="M119.15,196.69c-9.58,1.88-14.62,14.24-9.21,22.32,3.42,5.13,11.77.32,8.31-4.86a5.34,5.34,0,0,1,3.46-8.17C127.79,204.79,125.22,195.51,119.15,196.69Z" transform="translate(13.374)" fill="#fbe3da"/><path d="M156.56,189.47a30.56,30.56,0,0,0-12.84,23.33c-.37,6.19,9.26,6.17,9.63,0a20.14,20.14,0,0,1,8.07-15C166.38,194.17,161.58,185.81,156.56,189.47Z" transform="translate(17.938)" fill="#fbe3da"/><path d="M182.53,188.9a31.37,31.37,0,0,0-9.21,22.62c.07,6.19,9.7,6.21,9.63,0a21.48,21.48,0,0,1,6.39-15.82C193.71,191.3,186.9,184.49,182.53,188.9Z" transform="translate(21.499)" fill="#fbe3da"/><path d="M210.78,165.8a38,38,0,0,0-12.19,26.45c-.3,6.19,9.33,6.18,9.63,0a28.1,28.1,0,0,1,9.37-19.64C222.16,168.4,215.34,161.6,210.78,165.8Z" transform="translate(24.822)" fill="#fbe3da"/><path d="M243.18,170.45c-.76-2.76-3.34-3.75-5.93-3.36-9.63,1.45-14.94,14.5-9.05,22.26,1.57,2.07,4.15,3.15,6.59,1.73,2-1.19,3.31-4.5,1.73-6.59a5,5,0,0,1,3.29-8.12C242.39,176,243.81,172.74,243.18,170.45Z" transform="translate(28.003)" fill="#fbe3da"/><path d="M263.62,167.3c1.65-2,2-4.81,0-6.81-1.67-1.71-5.18-2-6.8,0a18.989,18.989,0,0,0-2.08,21.47c3,5.41,11.34.56,8.31-4.86a8.92,8.92,0,0,1,.57-9.8Z" transform="translate(30.913)" fill="#fbe3da"/><path d="M256.11,199c-.63-2.32-3.48-4.31-5.92-3.36-7.23,2.79-10.86,11.38-6.79,18.3,3.14,5.34,11.47.5,8.32-4.86-.68-1.15-.28-3.65,1-4.16C255.18,204,256.85,201.66,256.11,199Z" transform="translate(29.755)" fill="#fbe3da"/><path d="M220.07,204.21a4.89,4.89,0,0,0-6.81,0,16.63,16.63,0,0,0-4.94,16.26c1.39,6,10.68,3.48,9.28-2.56a6.94,6.94,0,0,1,2.47-6.9,4.86,4.86,0,0,0,0-6.8Z" transform="translate(25.529)" fill="#fbe3da"/><path d="M132.53,108.34c-2-2-4.76-1.61-6.81,0a37.77,37.77,0,0,0-8.64,9.83A4.82,4.82,0,0,0,125.4,123a30.15,30.15,0,0,1,7.13-7.88C134.57,113.54,134.22,110,132.53,108.34Z" transform="translate(14.467)" fill="#fbe3da"/><path d="M285.8,10.77a4.89,4.89,0,0,0-6.8,0,14.7,14.7,0,0,0-4.53,12.05c.29,2.58,2,4.81,4.81,4.81,2.37,0,5.11-2.21,4.81-4.81a5.4,5.4,0,0,1,.78-4.18,3.64,3.64,0,0,1,.93-1.06A4.87,4.87,0,0,0,285.8,10.77Z" transform="translate(33.625)" fill="#fbe3da"/><path d="M311.74,12.63c-2-2-4.76-1.62-6.8,0a41.68,41.68,0,0,0-9.41,10.62c-3.3,5.27,5,10.11,8.32,4.86a34.3,34.3,0,0,1,7.89-8.67C313.78,17.82,313.43,14.32,311.74,12.63Z" transform="translate(36.631)" fill="#fbe3da"/><path d="M335.31,5.33c-9,.39-16.21,9.85-13,18.63a4.93,4.93,0,0,0,5.92,3.36c2.36-.65,4.25-3.47,3.36-5.92s.62-6.31,3.74-6.45C341.49,14.68,341.52,5.05,335.31,5.33Z" transform="translate(39.959)" fill="#fbe3da"/><path d="M359.9,10.72c-2-2-4.76-1.62-6.8,0a17.44,17.44,0,0,0-6.2,12.08c-.28,2.58,2.42,4.81,4.82,4.81,2.84,0,4.53-2.22,4.81-4.81,0,.52.3-1.13.36-1.35a4.17,4.17,0,0,1,.6-1.29,8.749,8.749,0,0,1,2.41-2.63C361.94,15.91,361.6,12.42,359.9,10.72Z" transform="translate(48.95)" fill="#fbe3da"/><path d="M288.64,44.63a4.9,4.9,0,0,0-6.59,1.73L278.2,53.1a4.824,4.824,0,1,0,8.31,4.9l3.85-6.74a4.88,4.88,0,0,0-1.72-6.63Z" transform="translate(34.068)" fill="#fbe3da"/><path d="M320.55,32.57C309.64,35,303.08,46.17,305.2,56.91c1.19,6.08,10.47,3.51,9.28-2.56-1.14-5.78,3.11-11.25,8.63-12.5C329.15,40.49,326.59,31.2,320.55,32.57Z" transform="translate(38.204)" fill="#fbe3da"/><path d="M291.7,73.15c-.65-2.38-3.46-4.22-5.92-3.36a18,18,0,0,0-12.26,16.55c-.18,6.2,9.45,6.2,9.63,0a8,8,0,0,1,5.19-7.26,5,5,0,0,0,3.36-5.93Z" transform="translate(33.987)" fill="#fbe3da"/><path d="M311.4,87.62a.87.87,0,0,0,.2-.16l-.08.05Z" transform="translate(36.991)" fill="#fbe3da"/><path d="M315.85,81.09a4.88,4.88,0,0,0-5.92-3.36,13.43,13.43,0,0,0-9,9.28,4.813,4.813,0,1,0,9.28,2.56,6.761,6.761,0,0,1,.27-.74c-.1.22-.27.4,0,0h0a.818.818,0,0,0,0-.2.36.36,0,0,1,0,.19l.32-.49c-.08.08-.1.06.1-.16a.69.69,0,0,0,.11-.19.11.11,0,0,1,0,.08h0l.4-.37c-.16.11-.28.15.12-.11.06-.06.11-.1.1-.11s0,0,0,.06h0l.38-.27a4,4,0,0,1,.49-.16,4.9,4.9,0,0,0,3.35-6.01Z" transform="translate(37.082)" fill="#fbe3da"/><path d="M310.77,88.29A.929.929,0,0,0,311,88a1.139,1.139,0,0,0-.11.11Z" transform="translate(36.919)" fill="#fbe3da"/><path d="M310.44,88.83Z" transform="translate(36.859)" fill="#fbe3da"/><path d="M278,103.46c-9.19,4.09-13.86,15.1-10.93,24.61,1.82,5.9,11.11,3.38,9.28-2.56-1.77-5.75,1.1-11.33,6.51-13.73C288.55,109.26,283.66,101,278,103.46Z" transform="translate(33.152)" fill="#fbe3da"/><path d="M302.16,108.36a18.47,18.47,0,0,0-9.25,13.27c-.35,2.57.62,5.17,3.36,5.92,2.25.62,5.57-.77,5.92-3.36a9.6,9.6,0,0,1,4.83-7.52C312.42,113.62,307.57,105.3,302.16,108.36Z" transform="translate(36.222)" fill="#fbe3da"/><path d="M281,137.21a17.45,17.45,0,0,0-7.54,18.9c1.46,6,10.75,3.47,9.28-2.56a7.51,7.51,0,0,1,3.12-8C291,142.15,286.18,133.81,281,137.21Z" transform="translate(33.642)" fill="#fbe3da"/><path d="M304,149.59a4.9,4.9,0,0,0-6.58,1.73c-1,1.6-1.93,3.21-2.89,4.81a4.813,4.813,0,0,0,8.31,4.86l2.89-4.81A4.87,4.87,0,0,0,304,149.59Z" transform="translate(35.983)" fill="#fbe3da"/><path d="M272.39,178.26A19.87,19.87,0,0,0,270,191.61c.38,2.58,3.63,4,5.92,3.36,2.76-.75,3.75-3.34,3.36-5.92a9.4,9.4,0,0,1,1.39-5.93C283.85,177.76,275.53,172.91,272.39,178.26Z" transform="translate(32.959)" fill="#fbe3da"/><path d="M290.93,189.18c-7.33,6.59-8.9,16.9-5,25.71,2.51,5.66,10.81.76,8.32-4.86-2.21-5-.39-10.56,3.48-14C302.36,191.84,295.53,185,290.93,189.18Z" transform="translate(35.013)" fill="#fbe3da"/><path d="M316.59,184.14a22.18,22.18,0,0,0-7.29,18.72c.28,2.58,2,4.81,4.81,4.81,2.39,0,5.1-2.21,4.82-4.81A13.26,13.26,0,0,1,323.39,191C328,186.81,321.2,180,316.59,184.14Z" transform="translate(38.166)" fill="#fbe3da"/><path d="M321.38,156.33c-2.19-1.15-5.39-.68-6.59,1.73q-1.94,3.84-3.85,7.7c-1.13,2.25-.68,5.32,1.72,6.59,2.19,1.15,5.39.67,6.59-1.73,1.28-2.57,2.57-5.14,3.85-7.7C324.23,160.67,323.78,157.6,321.38,156.33Z" transform="translate(38.079)" fill="#fbe3da"/><path d="M332.81,124.56c-1.43-2.45-4.19-2.78-6.58-1.73a17.07,17.07,0,0,0-9.8,16.54,4.93,4.93,0,0,0,4.81,4.81c2.45,0,5-2.21,4.81-4.81a7.87,7.87,0,0,1,5-8.22C333.47,130.1,334,126.62,332.81,124.56Z" transform="translate(39.182)" fill="#fbe3da"/><path d="M336.75,89.63c-2-2-4.81-1.68-6.81,0A16,16,0,0,0,325,105.88c1.57,6,10.86,3.45,9.29-2.56a6.54,6.54,0,0,1,2.44-6.89C338.74,94.76,338.48,91.35,336.75,89.63Z" transform="translate(39.843)" fill="#fbe3da"/><path d="M336.82,56c-2-2-4.77-1.62-6.81,0-5.29,4.18-6.21,11.44-3.62,17.33,1.05,2.38,4.53,2.93,6.59,1.73,2.46-1.44,2.78-4.2,1.73-6.59-.87-2,.3-4.24,2.11-5.66C338.86,61.2,338.5,57.7,336.82,56Z" transform="translate(39.863)" fill="#fbe3da"/><path d="M352.82,35.43a4.91,4.91,0,0,0-5.92,3.36,21.9,21.9,0,0,0-.75,11.27c.44,2.56,3.59,4,5.92,3.36,2.71-.75,3.81-3.35,3.36-5.92a12.2,12.2,0,0,1,.75-6.15C357.06,38.9,355.2,36.08,352.82,35.43Z" transform="translate(48.95)" fill="#fbe3da"/><path d="M375.33,14A19.24,19.24,0,0,0,366,35.71c1.56,6,10.85,3.45,9.28-2.56a9.5,9.5,0,0,1,4.9-10.85C385.65,19.37,380.8,11.05,375.33,14Z" transform="translate(48.95)" fill="#fbe3da"/><path d="M389.9,41.41c-10.64,2-17.51,13.92-14.13,24.13,1.93,5.85,11.24,3.34,9.28-2.56a9.46,9.46,0,0,1,7.41-12.29C398.55,49.57,396,40.29,389.9,41.41Z" transform="translate(48.95)" fill="#fbe3da"/><path d="M362.63,65.47c-1.65-1.68-5.21-2-6.81,0A23.62,23.62,0,0,0,351,85.66c1.32,6,10.61,3.49,9.29-2.56a13.16,13.16,0,0,1,2.3-10.82C364.24,70.22,364.6,67.49,362.63,65.47Z" transform="translate(48.95)" fill="#fbe3da"/><path d="M372.27,84.76a19.72,19.72,0,0,0-5.9,20.17c1.67,6,11,3.43,9.29-2.56a10.16,10.16,0,0,1,3.41-10.8C383.77,87.5,376.93,80.72,372.27,84.76Z" transform="translate(48.95)" fill="#fbe3da"/><path d="M352.13,104.29c-2.44-1.43-5.05-.38-6.59,1.72a21.61,21.61,0,0,0-3.25,18.19c1.55,6,10.84,3.45,9.28-2.56a12.36,12.36,0,0,1,2.28-10.77C355.39,108.77,354.21,105.5,352.13,104.29Z" transform="translate(48.95)" fill="#fbe3da"/><path d="M368.56,124.34a4.86,4.86,0,0,0-6.81,0,27.141,27.141,0,0,0-6,10.79c-1.71,6,7.58,8.52,9.29,2.56a16.691,16.691,0,0,1,3.56-6.54A4.92,4.92,0,0,0,368.56,124.34Z" transform="translate(48.95)" fill="#fbe3da"/><path d="M347.21,136c-1.2-2.06-4.48-3.28-6.58-1.72-5.82,4.29-8.82,11.86-6.08,18.85.95,2.42,3.22,4.1,5.92,3.36,2.31-.63,4.32-3.49,3.36-5.92-1.05-2.68-.88-6.11,1.66-8C347.57,141,348.62,138.38,347.21,136Z" transform="translate(48.95)" fill="#fbe3da"/><path d="M353.13,160.23a28,28,0,0,0-10.59,11.22,4.93,4.93,0,0,0,1.73,6.59,4.85,4.85,0,0,0,6.58-1.73,18.52,18.52,0,0,1,7.14-7.76C363.31,165.37,358.47,157,353.13,160.23Z" transform="translate(48.95)" fill="#fbe3da"/><path d="M346.12,198.39c-1.44-2.47-4.19-2.76-6.59-1.73-6.4,2.77-10.27,9.16-10.79,16-.19,2.6,2.36,4.82,4.82,4.82a4.9,4.9,0,0,0,4.81-4.82c.27-3.6,2.83-6.25,6-7.63C346.78,203.94,347.32,200.44,346.12,198.39Z" transform="translate(40.809)" fill="#fbe3da"/><path d="M371.17,189.62c-1.45-2.47-4.19-2.75-6.59-1.72a18.75,18.75,0,0,0-10.92,18.8c.29,2.58,2,4.81,4.82,4.81,2.38,0,5.1-2.21,4.81-4.81a9.7,9.7,0,0,1,6.15-10.49C371.83,195.19,372.36,191.67,371.17,189.62Z" transform="translate(48.95)" fill="#fbe3da"/><path d="M408.4,193.33c-1.72-1.72-5.13-2-6.81,0a30,30,0,0,0-7,14.66c-.41,2.56.66,5.18,3.36,5.92,2.29.63,5.51-.78,5.92-3.36a20.83,20.83,0,0,1,4.51-10.41,5,5,0,0,0,.02-6.81Z" transform="translate(48.95)" fill="#fbe3da"/><path d="M372.57,159A28.62,28.62,0,0,0,369,173c0,6.2,9.67,6.21,9.63,0a18.51,18.51,0,0,1,2.25-9.12C383.85,158.44,375.54,153.58,372.57,159Z" transform="translate(48.95)" fill="#fbe3da"/><path d="M400.76,153.67a15,15,0,0,0-10.68,18.07c1.52,6,10.81,3.46,9.28-2.56a5.24,5.24,0,0,1,4-6.23C409.34,161.49,406.79,152.2,400.76,153.67Z" transform="translate(48.95)" fill="#fbe3da"/><path d="M386.63,123.21c-7.74,4-10.36,13.89-6.39,21.43,2.88,5.48,11.2.62,8.31-4.86-1.62-3.09,0-6.73,2.94-8.25C397,128.68,392.13,120.36,386.63,123.21Z" transform="translate(48.95)" fill="#fbe3da"/><path d="M396.34,86.7a24,24,0,0,0-6.73,23c1.4,6,10.69,3.48,9.28-2.56a14.1,14.1,0,0,1,4.26-13.65C407.65,89.23,400.83,82.43,396.34,86.7Z" transform="translate(48.95)" fill="#fbe3da"/><path d="M409.47,17c-1.22-2.09-4.46-3.25-6.59-1.73-5.78,4.14-9.38,10.82-8.61,18,.27,2.59,2,4.82,4.81,4.82,2.39,0,5.09-2.21,4.82-4.82-.4-3.7.69-7.47,3.84-9.73A4.865,4.865,0,0,0,409.47,17Z" transform="translate(48.95)" fill="#fbe3da"/><path d="M405.11,57.17a21.94,21.94,0,0,0-11.19,17.61c-.24,2.59,2.38,4.81,4.81,4.81,2.8,0,4.58-2.21,4.82-4.81A12,12,0,0,1,410,65.49C415.41,62.5,410.55,54.18,405.11,57.17Z" transform="translate(48.95)" fill="#fbe3da"/><path d="M379.64,199.73c-6.78,3.49-7.64,11.24-7.12,18.05.46,6.14,10.09,6.19,9.63,0-.24-3.17-1.06-8,2.35-9.74C390,205.2,385.14,196.89,379.64,199.73Z" transform="translate(48.95)" fill="#fbe3da"/></g></g></g></svg>